<?xml version="1.0" standalone="no"?>
<!DOCTYPE svg PUBLIC "-//W3C//DTD SVG 1.1//EN" "http://www.w3.org/Graphics/SVG/1.1/DTD/svg11.dtd" >
<svg xmlns="http://www.w3.org/2000/svg">
<metadata></metadata>
<defs>
<font id="as_grammatikamedium" horiz-adv-x="1175" >
<font-face units-per-em="2048" ascent="1462" descent="-586" />
<missing-glyph horiz-adv-x="569" />
<glyph horiz-adv-x="2048" />
<glyph horiz-adv-x="2048" />
<glyph unicode="&#xd;" horiz-adv-x="2048" />
<glyph unicode=" "  horiz-adv-x="569" />
<glyph unicode="&#x09;" horiz-adv-x="569" />
<glyph unicode="&#xa0;" horiz-adv-x="569" />
<glyph unicode="!" horiz-adv-x="569" d="M147 0v256h275v-256h-275zM158 1040v422h256v-422l-68 -632h-121z" />
<glyph unicode="&#x22;" horiz-adv-x="909" d="M170 885v577h209v-577h-209zM530 885v577h209v-577h-209z" />
<glyph unicode="#" horiz-adv-x="1138" d="M70 430v154h215l37 266h-193v154h213l59 430h166l-61 -430h227l60 430h165l-61 -430h176v-154h-196l-37 -266h174v-154h-195l-61 -430h-164l59 430h-225l-61 -430h-164l59 430h-192zM449 584h227l37 266h-228z" />
<glyph unicode="$" horiz-adv-x="1138" d="M35 444h233q-3 -285 262 -294v495q-65 18 -113 34.5t-105.5 42.5t-98 59.5t-76 77.5t-53.5 104.5t-18 132.5q0 125 66 218t169.5 138t228.5 45v160h88v-160q94 0 174.5 -25t142 -73t97 -125.5t35.5 -175.5h-233q-9 215 -216 215v-432q60 -16 105.5 -30.5t98.5 -36.5 t92 -46t76.5 -58.5t61 -75t38 -93.5t14.5 -115q0 -112 -37.5 -199.5t-104 -142.5t-153.5 -84.5t-191 -34.5v-160h-88v160q-227 5 -362.5 130t-132.5 349zM299 1112q0 -48 19 -84t54.5 -60t71.5 -38.5t86 -26.5v410q-231 0 -231 -201zM618 150q117 8 184.5 67t67.5 176 q0 45 -14.5 80.5t-36.5 59t-58 42.5t-67.5 30t-75.5 22v-477z" />
<glyph unicode="%" horiz-adv-x="2048" d="M168 1055q0 85 20 157t60.5 129t107.5 89t154 32t154 -32t107.5 -89t60.5 -129t20 -157q0 -87 -19 -158.5t-58.5 -128.5t-107 -89t-157.5 -32t-157.5 32t-107 89t-58.5 128.5t-19 158.5zM352 1055q0 -125 37.5 -200t118.5 -75q82 0 121 75.5t39 199.5q0 55 -7.5 101 t-24.5 86.5t-49.5 63.5t-78.5 23q-156 0 -156 -274zM532 -49l797 1532h156l-793 -1532h-160zM1196 379q0 85 20 157t60.5 129t107.5 89t154 32t154 -32t107.5 -89t60.5 -129t20 -157q0 -87 -19 -158.5t-58.5 -128.5t-107 -89t-157.5 -32t-157.5 32t-107 89t-58.5 128.5 t-19 158.5zM1380 379q0 -125 37.5 -200t118.5 -75q82 0 121 75.5t39 199.5q0 55 -7.5 101t-24.5 86.5t-49.5 63.5t-78.5 23q-156 0 -156 -274z" />
<glyph unicode="&#x26;" horiz-adv-x="1327" d="M66 406q0 252 335 423q-72 91 -109.5 162.5t-37.5 157.5q0 155 103 251.5t255 96.5q72 0 136.5 -22.5t116 -64.5t82 -110.5t30.5 -152.5q0 -120 -73.5 -214t-190.5 -157l227 -274q34 97 45 196h205q-24 -217 -115 -358l281 -340h-287l-133 164q-158 -193 -410 -193 q-205 0 -332.5 116.5t-127.5 318.5zM299 401q0 -115 66 -180t170 -65q31 0 59.5 5.5t48.5 11t42.5 20t34 22t29.5 27.5t23 26t21.5 28t17.5 23l-287 357q-12 -7 -45.5 -26t-52 -30.5t-46.5 -35t-43 -47t-26.5 -59t-11.5 -77.5zM463 1161q0 -34 15 -70t30.5 -58.5t46 -60.5 t41.5 -54q41 28 65.5 47t52.5 48.5t41 64.5t13 77q0 73 -41.5 120.5t-108.5 47.5q-66 0 -110.5 -45t-44.5 -117z" />
<glyph unicode="'" horiz-adv-x="569" d="M180 885v577h209v-577h-209z" />
<glyph unicode="(" horiz-adv-x="569" d="M100 553q0 244 76.5 484.5t218.5 459.5h191q-252 -450 -252 -944q0 -518 252 -944h-191q-140 221 -217.5 447t-77.5 497z" />
<glyph unicode=")" horiz-adv-x="569" d="M-16 -391q252 447 252 942q0 517 -252 946h190q140 -223 217.5 -449t77.5 -497q0 -244 -76.5 -484.5t-218.5 -457.5h-190z" />
<glyph unicode="*" horiz-adv-x="757" d="M39 1171l45 134l225 -88v245h140v-245l223 88l49 -134l-234 -77l144 -193l-109 -80l-145 201l-139 -201l-115 80l143 193z" />
<glyph unicode="+" horiz-adv-x="1228" d="M98 414v209h412v413h209v-413h411v-209h-411v-414h-209v414h-412z" />
<glyph unicode="," horiz-adv-x="569" d="M141 0v276h285v-276q0 -124 -76 -211.5t-200 -112.5v125q65 17 100 73t33 126h-142z" />
<glyph unicode="-" horiz-adv-x="796" d="M100 446v222h596v-222h-596z" />
<glyph unicode="." horiz-adv-x="569" d="M141 0v276h285v-276h-285z" />
<glyph unicode="/" horiz-adv-x="720" d="M-45 -35l588 1532h223l-588 -1532h-223z" />
<glyph unicode="0" horiz-adv-x="1236" d="M123 434v565q0 226 133 344.5t362 118.5q230 0 363 -118.5t133 -344.5v-565q0 -226 -133 -344.5t-363 -118.5q-229 0 -362 118.5t-133 344.5zM356 494q0 -175 60.5 -251.5t201.5 -76.5q143 0 203 73.5t60 254.5v446q0 181 -60 254.5t-203 73.5q-141 0 -201.5 -76.5 t-60.5 -251.5v-446z" />
<glyph unicode="1" horiz-adv-x="980" d="M170 1085l322 349h204v-1434h-235v1087l-133 -159z" />
<glyph unicode="2" horiz-adv-x="1138" d="M80 0v147v62q458 393 534 459q199 161 213 346q1 34 -4.5 66t-22 67t-42 61t-70 43t-102.5 17q-67 0 -115 -27t-75 -78t-40.5 -112.5t-15.5 -141.5h-234q0 160 56 284t169 196.5t269 72.5q95 0 173.5 -26t131 -69t88.5 -100t52 -118.5t16 -126.5q0 -250 -301 -518 l-344 -295h643v-209h-942h-37z" />
<glyph unicode="3" horiz-adv-x="1138" d="M63 471h234q-5 -135 66 -220t204 -85q121 0 198 68t77 188q0 65 -22 112t-56.5 73t-85.5 40.5t-100.5 18t-110.5 0.5v174q62 -2 116 8.5t100.5 35.5t73.5 71.5t27 109.5q0 90 -63 146.5t-160 56.5q-115 0 -177.5 -87t-59.5 -206h-234q9 215 136 351t339 136 q85 0 165 -24.5t145 -71t104 -121t39 -166.5q0 -110 -51.5 -190.5t-151.5 -116.5v-4q121 -25 190.5 -122t69.5 -236q0 -131 -70 -232.5t-185 -154t-253 -52.5q-242 0 -370.5 134.5t-133.5 365.5z" />
<glyph unicode="4" horiz-adv-x="1138" d="M49 340v231l615 863h221v-910h184v-184h-184v-340h-221v340h-615zM229 524h435v631h-5z" />
<glyph unicode="5" horiz-adv-x="1138" d="M78 410h237q12 -129 72.5 -185.5t185.5 -56.5q136 0 198.5 72t62.5 229q0 158 -62.5 230.5t-198.5 72.5q-89 0 -144.5 -29.5t-84.5 -91.5h-233v785h882v-209h-649v-355q81 95 229 95q232 0 364 -123t132 -375q0 -251 -132 -373.5t-364 -122.5q-222 0 -355 112t-140 325z " />
<glyph unicode="6" horiz-adv-x="1214" d="M123 457v542q0 226 129 344.5t352 118.5q203 0 329.5 -100t147.5 -291h-237q-19 106 -74.5 151.5t-165.5 45.5q-133 0 -190.5 -70.5t-57.5 -232.5v-193q20 67 101.5 118.5t193.5 51.5q463 0 463 -485q0 -246 -132 -366t-364 -120t-363.5 120.5t-131.5 365.5zM344 457 q0 -148 65 -219.5t203 -71.5q139 0 204 68.5t65 222.5q0 153 -65 222t-204 69q-137 0 -202.5 -72t-65.5 -219z" />
<glyph unicode="7" horiz-adv-x="1138" d="M72 1225v209h981v-195l-576 -1239h-256l594 1225h-743z" />
<glyph unicode="8" horiz-adv-x="1138" d="M63 422q0 134 71 226.5t192 123.5v4q-97 37 -150 114t-53 181q0 184 116.5 287.5t329.5 103.5t330 -103.5t117 -287.5q0 -104 -53 -181t-150 -114v-4q121 -31 191.5 -123.5t70.5 -226.5q0 -207 -141.5 -329t-364.5 -122t-364.5 122t-141.5 329zM297 422q0 -123 76 -194.5 t196 -71.5t196.5 71.5t76.5 194.5q0 116 -76.5 184t-196.5 68t-196 -68t-76 -184zM344 1059q0 -99 63 -155t162 -56q100 0 163 56t63 155q0 102 -64 160.5t-162 58.5q-97 0 -161 -58.5t-64 -160.5z" />
<glyph unicode="9" horiz-adv-x="1193" d="M86 977q0 245 132 365t364 120t363.5 -120t131.5 -365v-543q0 -226 -129 -344.5t-352 -118.5q-203 0 -329.5 99.5t-147.5 291.5h237q19 -106 74.5 -151t165.5 -45q133 0 190.5 70t57.5 231v195q-20 -68 -101.5 -119t-193.5 -51q-228 0 -345.5 117.5t-117.5 367.5z M319 977q0 -154 65 -222.5t204 -68.5q138 0 203 71.5t65 219.5q0 147 -65.5 219t-202.5 72q-139 0 -204 -69t-65 -222z" />
<glyph unicode=":" horiz-adv-x="569" d="M141 0v276h285v-276h-285zM141 760v276h285v-276h-285z" />
<glyph unicode=";" horiz-adv-x="569" d="M141 0v276h285v-276q0 -124 -76 -211.5t-200 -112.5v125q65 17 100 73t33 126h-142zM141 760v276h285v-276h-285z" />
<glyph unicode="&#x3c;" horiz-adv-x="1228" d="M94 444v148l1041 461v-209l-766 -326l766 -325v-209z" />
<glyph unicode="=" horiz-adv-x="1228" d="M98 207v209h1032v-209h-1032zM98 621v208h1032v-208h-1032z" />
<glyph unicode="&#x3e;" horiz-adv-x="1228" d="M94 -16v209l766 325l-766 326v209l1041 -461v-148z" />
<glyph unicode="?" horiz-adv-x="1138" d="M100 997q-2 226 132.5 363t359.5 137q194 0 320 -111t126 -303q0 -40 -6 -76t-13 -62t-24 -53.5t-27.5 -42.5t-35.5 -39.5t-35 -33t-39 -33.5q-42 -36 -60 -52t-47 -50t-41 -63.5t-22 -76.5t-10 -104h-221q0 118 18 195t50 123.5t91 97.5q6 6 35.5 30.5t37 31.5t29 29 t28 35.5t18 36t15 46.5t3.5 53q0 59 -20.5 105t-52 71.5t-64.5 38.5t-63 13q-123 0 -185.5 -82t-62.5 -224h-234zM426 0v256h274v-256h-274z" />
<glyph unicode="@" horiz-adv-x="1638" d="M100 758q0 152 60.5 289.5t162 235.5t240 156t289.5 58q182 0 338.5 -75.5t252 -214.5t95.5 -310q0 -118 -34.5 -221t-88 -172.5t-119 -120t-127.5 -73.5t-114 -23q-50 0 -84 31t-37 88h-4q-45 -50 -106.5 -83.5t-123.5 -33.5q-126 0 -212.5 94t-86.5 227q0 98 33 193 t90.5 170t143 121.5t182.5 46.5q156 0 229 -148l37 117h144l-148 -539q-40 -141 21 -141q99 0 182.5 130.5t83.5 311.5q0 148 -74.5 261.5t-198.5 172t-274 58.5q-170 0 -305.5 -82t-209 -222t-73.5 -310q0 -195 79.5 -344.5t216.5 -228.5t310 -79q133 0 255.5 54t205.5 149 h144q-98 -158 -261 -247t-352 -89q-157 0 -297 58.5t-242.5 161.5t-162.5 252t-60 321zM575 629q0 -83 45 -135t119 -52q77 0 143.5 60.5t102 144t35.5 160.5q0 72 -48 126t-114 54q-61 0 -115.5 -34t-90 -87t-56.5 -116t-21 -121z" />
<glyph unicode="A" horiz-adv-x="1366" d="M-14 0l561 1462h272l563 -1462h-274l-137 387h-584l-137 -387h-264zM457 582h446l-219 628h-6z" />
<glyph unicode="B" horiz-adv-x="1441" d="M156 0v1462h710q202 0 318 -92t116 -270q0 -109 -53.5 -189t-154.5 -123v-4q133 -29 203.5 -127.5t70.5 -248.5q0 -88 -31.5 -160.5t-95 -129t-169 -87.5t-243.5 -31h-671zM412 209h452q117 0 181.5 60.5t64.5 170.5q0 107 -64.5 166.5t-181.5 59.5h-452v-457zM412 850 h417q95 0 155 53.5t60 149.5q0 107 -53.5 153.5t-161.5 46.5h-417v-403z" />
<glyph unicode="C" horiz-adv-x="1478" d="M139 526v404q0 274 161 417.5t439 143.5q260 0 419 -126t179 -368h-260q-8 59 -27 104.5t-56 85.5t-101.5 61.5t-153.5 21.5q-69 0 -123.5 -14t-90 -35t-61 -56.5t-39 -68t-20.5 -81t-8.5 -83t-1.5 -86.5v-236q0 -52 1.5 -86.5t8.5 -83t20.5 -81t39 -68t61 -56.5t90 -35 t123.5 -14q88 0 151.5 22t99.5 55t57 85.5t28 99t8 109.5h256v-31q0 -274 -161 -417.5t-439 -143.5t-439 143.5t-161 417.5z" />
<glyph unicode="D" horiz-adv-x="1402" d="M156 0v1462h508q278 0 439 -143.5t161 -417.5v-340q0 -274 -161 -417.5t-439 -143.5h-508zM412 209h252q69 0 123.5 14t90 35t61 56.5t39 68t20.5 81t8.5 83t1.5 86.5v196q0 52 -1.5 86.5t-8.5 83t-20.5 81t-39 68t-61 56.5t-90 35t-123.5 14h-252v-1044z" />
<glyph unicode="E" horiz-adv-x="1290" d="M156 0v1462h1052v-221h-796v-383h737v-209h-737v-428h811v-221h-1067z" />
<glyph unicode="F" horiz-adv-x="1214" d="M156 0v1462h1009v-221h-753v-383h661v-209h-661v-649h-256z" />
<glyph unicode="G" horiz-adv-x="1480" d="M139 526v404q0 274 161 417.5t439 143.5q261 0 419.5 -126t178.5 -368h-260q-8 59 -27 104.5t-56 85.5t-101.5 61.5t-153.5 21.5q-69 0 -123.5 -14t-90 -35t-61 -56.5t-39 -68t-20.5 -81t-8.5 -83t-1.5 -86.5v-236q0 -52 1.5 -86.5t8.5 -83t20.5 -81t39 -68t61 -56.5 t90 -35t123.5 -14q88 0 152 22t100.5 55.5t57.5 85t27.5 99t6.5 109.5v12h-366v195h622v-84v-111v-575h-202v149q-45 -91 -140.5 -134.5t-257.5 -43.5q-278 0 -439 143.5t-161 417.5z" />
<glyph unicode="H" horiz-adv-x="1478" d="M150 0v1462h256v-581h665v581h256v-1462h-256v659h-665v-659h-256z" />
<glyph unicode="I" horiz-adv-x="569" d="M156 0v1462h256v-1462h-256z" />
<glyph unicode="J" horiz-adv-x="1099" d="M27 434v78h256v-76q0 -132 44 -197t156 -65q118 0 161.5 68.5t43.5 214.5v1005h256v-991q0 -59 -4.5 -108t-17.5 -103t-35 -95.5t-58.5 -80t-86 -64t-120.5 -40.5t-159 -15q-113 0 -198 35.5t-136.5 99.5t-76.5 148t-25 186z" />
<glyph unicode="K" horiz-adv-x="1261" d="M156 0v1462h254v-596h176l360 596h285l-420 -696l451 -766h-283l-385 653h-184v-653h-254z" />
<glyph unicode="L" d="M156 0v1462h256v-1241h743v-221h-999z" />
<glyph unicode="M" horiz-adv-x="1820" d="M152 -2v1462h319l444 -778h5l434 778h315v-1462h-244v1128h-4l-405 -741h-211l-406 741h-4v-1128h-243z" />
<glyph unicode="N" horiz-adv-x="1478" d="M145 0v1462h271l667 -1077h4v1077h244v-1462h-270l-666 1075h-6v-1075h-244z" />
<glyph unicode="O" horiz-adv-x="1478" d="M139 526v404q0 274 161 417.5t439 143.5t439 -143.5t161 -417.5v-404q0 -274 -161 -417.5t-439 -143.5t-439 143.5t-161 417.5zM395 610q0 -52 1.5 -86.5t8.5 -83t20.5 -81t39 -68t61 -56.5t90 -35t123.5 -14t123.5 14t90 35t61 56.5t39 68t20.5 81t8.5 83t1.5 86.5v236 q0 52 -1.5 86.5t-8.5 83t-20.5 81t-39 68t-61 56.5t-90 35t-123.5 14t-123.5 -14t-90 -35t-61 -56.5t-39 -68t-20.5 -81t-8.5 -83t-1.5 -86.5v-236z" />
<glyph unicode="P" horiz-adv-x="1366" d="M156 0v1462h645q120 0 211.5 -30t144.5 -76t86 -109t44 -119.5t11 -117.5q0 -60 -11 -116t-44 -119t-86 -108.5t-144.5 -75.5t-211.5 -30h-389v-561h-256zM412 770h374q46 0 89 12.5t81.5 39t62 75.5t23.5 115q0 70 -19.5 119t-56 74.5t-79 36.5t-96.5 11h-379v-483z" />
<glyph unicode="Q" horiz-adv-x="1480" d="M139 526v404q0 274 161 417.5t439 143.5t439 -143.5t161 -417.5v-404q0 -264 -153 -411l133 -115l-125 -139l-176 151q-114 -47 -279 -47q-278 0 -439 143.5t-161 417.5zM395 610q0 -52 1.5 -86.5t8.5 -83t20.5 -81t39 -68t61 -56.5t90 -35t123.5 -14q49 0 72 4l-109 95 l123 141l174 -152q37 39 57 100.5t23.5 110t3.5 125.5v236q0 52 -1.5 86.5t-8.5 83t-20.5 81t-39 68t-61 56.5t-90 35t-123.5 14t-123.5 -14t-90 -35t-61 -56.5t-39 -68t-20.5 -81t-8.5 -83t-1.5 -86.5v-236z" />
<glyph unicode="R" horiz-adv-x="1441" d="M156 0v1462h645q120 0 211.5 -30t144.5 -76t86 -109t44 -119.5t11 -117.5q0 -57 -10 -109.5t-35 -110t-74.5 -106t-119.5 -78.5l280 -606h-266l-260 561h-12h-389v-561h-256zM412 770h374q46 0 89 12.5t81.5 39t62 75.5t23.5 115q0 70 -19.5 119t-56 74.5t-79 36.5 t-96.5 11h-379v-483z" />
<glyph unicode="S" horiz-adv-x="1327" d="M68 487h256q0 -82 28.5 -143.5t80 -98t117 -54t144.5 -17.5q157 0 233.5 64t76.5 157q0 133 -121 180q-46 17 -105.5 34t-160.5 42.5t-171 44.5q-323 88 -323 371q0 106 46 190t122.5 135.5t170 78t195.5 26.5q116 0 217 -30.5t178.5 -88t122 -147.5t44.5 -201h-256 q-9 135 -92.5 196.5t-223.5 61.5q-48 0 -92.5 -9.5t-85.5 -30t-65.5 -59.5t-24.5 -91q0 -140 174 -189q376 -98 422 -112q137 -41 211 -146t74 -227q0 -118 -49.5 -209t-133.5 -144t-185 -79.5t-214 -26.5q-128 0 -236 31.5t-191.5 93.5t-132 163.5t-50.5 233.5z" />
<glyph unicode="T" horiz-adv-x="1214" d="M16 1241v221h1184v-221h-465v-1241h-256v1241h-463z" />
<glyph unicode="U" horiz-adv-x="1478" d="M139 526v936h256v-852q0 -52 1.5 -86.5t8.5 -83t20.5 -81t39 -68t61 -56.5t90 -35t123.5 -14t123.5 14t90 35t61 56.5t39 68t20.5 81t8.5 83t1.5 86.5v852h256v-936q0 -274 -161 -417.5t-439 -143.5t-439 143.5t-161 417.5z" />
<glyph unicode="V" horiz-adv-x="1251" d="M-10 1462h266l367 -1157h4l374 1157h261l-500 -1462h-285z" />
<glyph unicode="W" horiz-adv-x="1933" d="M12 1462h260l265 -1118h4l295 1118h262l286 -1118h5l272 1118h260l-403 -1462h-261l-292 1118h-4l-299 -1118h-265z" />
<glyph unicode="X" horiz-adv-x="1327" d="M-6 0l518 758l-483 704h305l332 -516l346 516h286l-483 -704l518 -758h-311l-365 559l-370 -559h-293z" />
<glyph unicode="Y" horiz-adv-x="1327" d="M-12 1462h297l387 -655l381 655h286l-546 -889v-573h-256v573z" />
<glyph unicode="Z" horiz-adv-x="1290" d="M47 0v209l852 1032h-786v221h1112v-194l-852 -1047h872v-221h-1198z" />
<glyph unicode="[" horiz-adv-x="606" d="M147 -391v1888h457v-184h-235v-1520h235v-184h-457z" />
<glyph unicode="\" horiz-adv-x="720" d="M-45 1497h223l588 -1532h-223z" />
<glyph unicode="]" horiz-adv-x="606" d="M2 -207h236v1520h-236v184h457v-1888h-457v184z" />
<glyph unicode="^" horiz-adv-x="1228" d="M172 686l369 748h147l369 -748h-209l-234 506l-233 -506h-209z" />
<glyph unicode="_" horiz-adv-x="1024" d="M0 -154h1024v-102h-1024v102z" />
<glyph unicode="`" horiz-adv-x="493" d="M-59 1497h274l186 -293h-170z" />
<glyph unicode="a" horiz-adv-x="1122" d="M66 291q0 189 162 284t464 95h99v92q0 43 -20.5 73t-55.5 44.5t-69.5 20t-74.5 5.5q-102 0 -164 -42t-69 -126h-234q5 79 34.5 141t75 101t107.5 64.5t127 36t138 10.5q81 0 154 -17.5t135 -52.5t98.5 -96.5t36.5 -141.5v-780h-215v100q-65 -64 -165.5 -96.5 t-201.5 -32.5q-73 0 -135.5 17.5t-114.5 54t-82 100t-30 146.5zM299 293q0 -38 21.5 -65.5t56 -42t69 -21t68.5 -6.5q54 0 107 16t99.5 58.5t53.5 103.5l2 149h-110q-152 0 -259.5 -56t-107.5 -136z" />
<glyph unicode="b" horiz-adv-x="1181" d="M129 0v1462h233v-520q23 59 96.5 102t166.5 43q205 0 319.5 -110.5t114.5 -323.5v-247q0 -214 -114.5 -324.5t-319.5 -110.5q-97 0 -168 48t-107 120v-139h-221zM348 449q0 -58 4.5 -98t18.5 -79.5t40 -63t69.5 -38t105.5 -14.5q52 0 91.5 9.5t65.5 29t42.5 43t25 59.5 t11.5 70t3 82v161q0 48 -3 82t-11.5 70t-25 59.5t-42.5 43t-65.5 29t-91.5 9.5q-62 0 -105.5 -14.5t-69.5 -38t-40 -63t-18.5 -79.5t-4.5 -98v-161z" />
<glyph unicode="c" horiz-adv-x="1157" d="M123 406v247q0 212 124.5 323t340.5 111q201 0 323.5 -97t139.5 -285h-236q-10 99 -60 148.5t-167 49.5q-61 0 -103.5 -14.5t-67.5 -38t-39 -63t-18 -79.5t-4 -98v-161q0 -58 4 -98t18 -79.5t39 -63t67.5 -38t103.5 -14.5q67 0 112 16.5t69.5 50.5t35 74.5t12.5 99.5h236 q-3 -209 -127.5 -317.5t-337.5 -108.5q-216 0 -340.5 111t-124.5 324z" />
<glyph unicode="d" d="M123 408v247q0 213 114.5 324t319.5 111q93 0 166 -43.5t96 -102.5v520h234v-1462h-222v139q-36 -72 -106.5 -120t-167.5 -48q-205 0 -319.5 110.5t-114.5 324.5zM356 451q0 -57 4.5 -97t19 -79.5t40 -63.5t70 -38.5t106.5 -14.5t105.5 14.5t69.5 38t40 63t18.5 79.5 t4.5 98v161q0 58 -4.5 98t-18.5 79.5t-40 63t-69.5 38t-105.5 14.5t-106.5 -14.5t-70 -38.5t-40 -63.5t-19 -79.5t-4.5 -97v-161z" />
<glyph unicode="e" d="M123 406v247q0 212 125 323t340 111t340 -111t125 -323v-184h-697v-20q0 -58 4 -98t18 -79.5t39 -63t67.5 -38t103.5 -14.5q111 0 160.5 44t62.5 132h238q-23 -178 -144.5 -269.5t-316.5 -91.5q-215 0 -340 111t-125 324zM356 623h463q-1 55 -5.5 93.5t-19 76t-39 60 t-66.5 36.5t-101 14t-101 -14t-67 -36.5t-39.5 -60t-19 -76t-5.5 -93.5z" />
<glyph unicode="f" horiz-adv-x="645" d="M18 885v174h175v88q0 78 16.5 136t42 91.5t65.5 54t79 27t89 6.5q112 0 164 -14v-182q-46 12 -108 12q-115 0 -115 -111v-108h199v-174h-199v-885h-233v885h-175z" />
<glyph unicode="g" horiz-adv-x="1214" d="M53 -129q0 43 16.5 82.5t40.5 65t48 45t40 28.5l17 8q-7 5 -17 14.5t-27 43.5t-17 73q0 92 116 172q-127 114 -127 285q0 173 128 286t325 113q173 0 299 -92q102 92 219 92q28 0 88 -6v-225q-82 10 -100 10q-48 0 -86 -14q37 -79 37 -164q0 -173 -129.5 -286 t-327.5 -113q-110 0 -197 37q-30 -22 -30 -52q0 -26 42.5 -40t110.5 -20t150.5 -12.5t165 -22.5t150.5 -43.5t110.5 -82.5t42.5 -133q0 -168 -142 -254t-409 -86q-252 0 -394.5 85t-142.5 206zM293 -102q0 -58 80 -96t223 -38q73 0 144 17.5t119 50.5t48 72q0 41 -71.5 73 t-187.5 47q-87 12 -181 12q-30 0 -61 -1q-27 -10 -70 -50t-43 -87zM375 684q0 -86 64 -148.5t157 -62.5q94 0 157.5 62.5t63.5 148.5q0 89 -59.5 155t-161.5 66q-101 0 -161 -66t-60 -155z" />
<glyph unicode="h" d="M123 0v1462h233v-542h4q44 74 130 120.5t188 46.5q175 0 275 -92.5t100 -267.5v-727h-234v666q0 123 -51.5 180t-155.5 57q-115 0 -185.5 -79.5t-70.5 -198.5v-625h-233z" />
<glyph unicode="i" horiz-adv-x="493" d="M129 0v1059h233v-1059h-233zM129 1241v221h233v-221h-233z" />
<glyph unicode="j" horiz-adv-x="493" d="M-45 -227q70 -9 80 -9q60 0 77 34.5t17 121.5v1139h233v-1149q0 -164 -71.5 -247t-231.5 -83q-42 0 -104 8v185zM129 1241v221h233v-221h-233z" />
<glyph unicode="k" horiz-adv-x="1077" d="M129 0v1460h233v-776h119l283 375h283l-361 -469l383 -590h-272l-303 471h-132v-471h-233z" />
<glyph unicode="l" horiz-adv-x="493" d="M129 301v1161h233v-1151q0 -86 17.5 -120.5t77.5 -34.5q18 0 80 8v-184q-70 -9 -105 -9q-160 0 -231.5 83t-71.5 247z" />
<glyph unicode="m" horiz-adv-x="1781" d="M123 0v1059h221v-148h6q58 86 133 131t193 45q102 0 182.5 -44.5t114.5 -131.5q62 86 141.5 131t190.5 45q174 0 264 -84.5t90 -271.5v-731h-234v618q0 60 -2.5 95.5t-13 76.5t-30.5 62.5t-56.5 36t-89.5 14.5q-225 0 -225 -282v-621h-234v680q0 114 -42 168.5t-144 54.5 q-96 0 -164 -74t-68 -200v-629h-233z" />
<glyph unicode="n" d="M123 0v1059h221v-156l4 -4q53 88 139.5 138t190.5 50q175 0 275 -92.5t100 -267.5v-727h-234v666q0 123 -51.5 180t-155.5 57q-115 0 -185.5 -79.5t-70.5 -198.5v-625h-233z" />
<glyph unicode="o" d="M123 406v247q0 212 125 323t340 111q216 0 340.5 -111t124.5 -323v-247q0 -213 -124.5 -324t-340.5 -111q-215 0 -340 111t-125 324zM356 449q0 -58 4.5 -98t18.5 -79.5t39 -63t67.5 -38t102.5 -14.5q61 0 103.5 14.5t67 38t38.5 63.5t18 79.5t4 97.5v161q0 58 -4 97.5 t-18 79.5t-38.5 63.5t-67 38t-103.5 14.5q-60 0 -102.5 -14.5t-67.5 -38t-39 -63t-18.5 -79.5t-4.5 -98v-161z" />
<glyph unicode="p" horiz-adv-x="1183" d="M129 -391v1450h221v-139q36 71 107 119t168 48q205 0 319.5 -110.5t114.5 -323.5v-247q0 -214 -114.5 -324.5t-319.5 -110.5q-93 0 -166.5 43t-96.5 103v-508h-233zM348 449q0 -58 4.5 -98t18.5 -79.5t40 -63t69.5 -38t105.5 -14.5q52 0 91.5 9.5t65.5 29t42.5 43 t25 59.5t11.5 70t3 82v161q0 48 -3 82t-11.5 70t-25 59.5t-42.5 43t-65.5 29t-91.5 9.5q-62 0 -105.5 -14.5t-69.5 -38t-40 -63t-18.5 -79.5t-4.5 -98v-161z" />
<glyph unicode="q" d="M123 406v247q0 213 114 323.5t320 110.5q96 0 166 -47.5t108 -119.5v139h222v-1450h-234v508q-24 -60 -97 -103t-165 -43q-206 0 -320 110t-114 325zM356 449q0 -58 4 -97.5t18.5 -79.5t39.5 -63.5t69.5 -38t106.5 -14.5t105.5 14.5t69 38t39.5 63t18.5 79.5t4.5 98v161 q0 58 -4.5 98t-18.5 79.5t-39.5 63t-69 38t-105.5 14.5t-106.5 -14.5t-69.5 -38t-39.5 -63.5t-18.5 -79.5t-4 -97.5v-161z" />
<glyph unicode="r" horiz-adv-x="720" d="M123 0v1059h219v-205h4q21 88 113 160.5t196 72.5q28 0 88 -6v-225q-83 10 -100 10q-125 0 -206 -96.5t-81 -265.5v-504h-233z" />
<glyph unicode="s" horiz-adv-x="1062" d="M66 340h233q9 -96 74 -140t166 -44q40 0 76 5t75 19q40 12 63 42q21 27 21 66v7q-1 23 -10.5 41.5t-21.5 32.5t-36 26t-43 20t-53 16.5t-56.5 13.5t-63 13t-62.5 13q-60 14 -102.5 27t-90.5 38t-77.5 56t-49.5 80.5t-20 111.5q0 67 27.5 120t72 86.5t104 56t118.5 31.5 t120 9q84 0 157 -18t134.5 -55.5t101 -101.5t50.5 -150h-244q-25 141 -215 141q-30 0 -59.5 -4.5t-61.5 -15t-51.5 -33.5t-19.5 -55q0 -24 9 -43.5t30 -34t41 -25t57.5 -20.5t62.5 -16t72 -15.5t72 -15.5q59 -13 102 -27t91 -39t78.5 -56t50.5 -79.5t20 -108.5 q0 -90 -42.5 -159t-113 -108t-150.5 -58t-167 -19q-101 0 -185 23t-147.5 67.5t-99.5 115.5t-37 163z" />
<glyph unicode="t" horiz-adv-x="681" d="M16 885v174h177v317h233v-317h211v-174h-211v-566q0 -81 20 -113t93 -32q65 0 98 8v-180q-17 -1 -48 -4.5t-56 -5.5t-48 -2q-90 0 -148.5 16.5t-89.5 53t-42.5 83t-11.5 117.5v625h-177z" />
<glyph unicode="u" d="M123 387v672h233v-649q0 -135 51.5 -194.5t151.5 -59.5q260 0 260 288v615h234v-1059h-230v147h-4q-42 -78 -127 -127t-174 -49q-204 0 -299.5 103t-95.5 313z" />
<glyph unicode="v" horiz-adv-x="1062" d="M18 1059h254l269 -813h4l258 813h241l-378 -1059h-263z" />
<glyph unicode="w" horiz-adv-x="1593" d="M27 1059h247l207 -791h4l199 791h236l190 -791h4l215 791h238l-332 -1059h-240l-196 786h-4l-195 -786h-246z" />
<glyph unicode="x" horiz-adv-x="1099" d="M8 0l400 557l-367 502h283l221 -326l231 326h271l-361 -490l406 -569h-281l-268 391l-260 -391h-275z" />
<glyph unicode="y" horiz-adv-x="1062" d="M6 1059h256l277 -791h4l268 791h244l-533 -1450h-237l123 395z" />
<glyph unicode="z" horiz-adv-x="1024" d="M45 0v164l586 710h-545v185h860v-164l-606 -711h637v-184h-932z" />
<glyph unicode="{" horiz-adv-x="606" d="M-8 461v184q25 0 54.5 7t62 22.5t54 47t21.5 73.5v422q0 55 19 103t48 79.5t65 54t69 33t61 10.5h187v-184h-113q-30 0 -51.5 -9.5t-33.5 -23.5t-19 -34.5t-8.5 -37.5t-1.5 -39v-399q0 -58 -23 -101.5t-60 -66t-68 -33t-62 -14.5v-4q27 -2 48.5 -6.5t54.5 -19t55 -37 t38.5 -65t16.5 -99.5v-387q0 -22 1.5 -39t8.5 -37.5t19 -34.5t33.5 -23.5t51.5 -9.5h113v-184h-187q-28 0 -61 10.5t-69 33t-65 54t-48 79.5t-19 103v406q0 47 -21.5 81.5t-54 51.5t-62 25t-54.5 8z" />
<glyph unicode="|" horiz-adv-x="454" d="M123 -438v2048h209v-2048h-209z" />
<glyph unicode="}" horiz-adv-x="606" d="M-27 -207h113q37 0 61.5 13t35.5 37t14.5 45t3.5 49v399q0 58 23 101.5t60 66t68 33t62 14.5v4q-27 2 -48.5 6.5t-54.5 19t-55 37t-38.5 65t-16.5 99.5v387q0 28 -3.5 49t-14.5 45t-35.5 37t-61.5 13h-113v184h187q28 0 61 -10.5t69 -33t65 -54t48 -79.5t19 -103v-406 q0 -47 21.5 -81.5t54 -51.5t62 -25t54.5 -8v-184q-25 0 -54.5 -7t-62 -22.5t-54 -47t-21.5 -73.5v-422q0 -55 -19 -103t-48 -79.5t-65 -54t-69 -33t-61 -10.5h-187v184z" />
<glyph unicode="~" horiz-adv-x="1228" d="M141 516q92 176 256 176q83 0 228 -65q14 -6 44.5 -20t47.5 -21t40.5 -16t42 -13t34.5 -4q36 0 70.5 22t52.5 43t48 62q3 4 5 6.5t4 5.5l73 -172q-23 -32 -38.5 -52t-41 -46.5t-49.5 -41t-57 -25.5t-70 -11q-52 0 -99 17t-109 51q-127 71 -236 71q-60 0 -100 -38.5 t-72 -100.5z" />
<glyph unicode="&#xa1;" horiz-adv-x="569" d="M147 831v256h275v-256h-275zM158 43l67 637h121l68 -637v-418h-256v418z" />
<glyph unicode="&#xa2;" horiz-adv-x="1157" d="M123 406v247q0 204 116 315t318 119v185h88v-187q177 -14 284 -110.5t122 -269.5h-236q-10 85 -48 134t-122 60v-739q95 13 132 72t40 165h236q-3 -194 -111.5 -302t-296.5 -122v-186h-88v184q-202 8 -318 119t-116 316zM356 449q0 -55 3.5 -93t16 -77t34 -63t58.5 -40 t89 -20v747q-52 -4 -89 -20t-58.5 -40t-34 -63t-16 -77t-3.5 -93v-161z" />
<glyph unicode="&#xa3;" horiz-adv-x="1138" d="M63 653v133h130q-45 56 -71 135t-26 154q0 123 70.5 221.5t179 149.5t229.5 51q240 0 377 -129t138 -377h-234q-14 312 -276 312q-98 0 -163 -64t-65 -176q0 -102 94 -277h302v-133h-252q32 -62 32 -137q0 -184 -206 -336l4 -4q5 2 34.5 14.5t40 16.5t33.5 11.5t42 10 t38 2.5q77 0 166 -34q6 -2 26.5 -9.5t30 -10.5t27 -8t34 -7t33.5 -2q108 0 199 78l105 -158q-74 -64 -149.5 -89.5t-178.5 -25.5q-39 0 -115 14.5t-88 16.5q-139 41 -215 41q-54 0 -111.5 -19t-95.5 -51l-108 166q85 58 153 151t68 181q0 100 -43 188h-189z" />
<glyph unicode="&#xa4;" horiz-adv-x="1138" d="M41 299l117 125q-103 115 -103 291q0 88 26 167t77 128l-117 125l117 116l116 -114q51 43 132 68.5t167 25.5q81 0 158 -25.5t123 -66.5l119 116l125 -125l-115 -118q45 -49 70.5 -128t25.5 -165q0 -181 -98 -299l113 -121l-113 -113l-117 119q-50 -49 -128.5 -75.5 t-164.5 -26.5q-192 0 -301 100l-114 -119zM276 715q0 -126 85.5 -214.5t209.5 -88.5q123 0 205 90t82 217q0 124 -82 213.5t-203 89.5q-127 0 -212 -89t-85 -218z" />
<glyph unicode="&#xa5;" horiz-adv-x="1138" d="M-10 1462h260l319 -655l326 655h254l-385 -719h203v-133h-281v-139h281v-133h-281v-338h-233v338h-281v133h281v139h-281v133h201z" />
<glyph unicode="&#xa6;" horiz-adv-x="454" d="M123 -182v512h209v-512h-209zM123 842v512h209v-512h-209z" />
<glyph unicode="&#xa7;" horiz-adv-x="1138" d="M45 639q0 212 221 305q-88 91 -88 207q0 79 35.5 146t93 109.5t129 66.5t146.5 24q117 0 209.5 -45.5t146.5 -134.5t55 -207h-221q-3 88 -55 145.5t-137 57.5q-66 0 -117 -43.5t-51 -110.5q0 -21 5.5 -40.5t18.5 -38t25.5 -33t37 -32.5t41 -29t49.5 -29t50.5 -27 t56.5 -28.5t56 -27.5q60 -31 101.5 -55t91 -61.5t79.5 -74.5t51 -88t21 -108q0 -96 -62.5 -179.5t-154.5 -114.5q57 -47 84.5 -109.5t27.5 -153.5q0 -84 -33.5 -151.5t-90 -110.5t-129 -65.5t-152.5 -22.5q-193 0 -315 110.5t-128 309.5h222q8 -111 61.5 -173.5t153.5 -62.5 q81 0 129.5 40.5t48.5 125.5q0 49 -23.5 91t-73.5 79t-94.5 62t-118.5 63l-42 21q-53 27 -89.5 48t-82.5 51t-76 59.5t-58 66t-41.5 79t-13.5 89.5zM266 666q0 -96 113 -160l373 -209q122 53 122 168q0 47 -31 86t-112 84l-340 194q-56 -15 -90.5 -60t-34.5 -103z" />
<glyph unicode="&#xa8;" horiz-adv-x="493" d="M-45 1227v221h233v-221h-233zM307 1227v221h234v-221h-234z" />
<glyph unicode="&#xa9;" horiz-adv-x="1638" d="M68 729q0 224 104 401t275 271t374 94q150 0 286.5 -55.5t239 -154t163.5 -243.5t61 -313t-61 -313t-163.5 -243.5t-239 -154t-286.5 -55.5q-162 0 -302.5 58.5t-239.5 160.5t-155 243.5t-56 303.5zM231 729q0 -130 41.5 -245.5t116 -201.5t186.5 -136t246 -50 q122 0 230 46.5t186.5 129t124 201t45.5 256.5q0 137 -45.5 255.5t-124 201t-186.5 129.5t-230 47q-123 0 -232 -47t-188 -129.5t-124.5 -201t-45.5 -255.5zM451 623v190q0 165 96.5 251.5t263.5 86.5q156 0 251 -75.5t107 -221.5h-182q-8 77 -46.5 115.5t-129.5 38.5 q-58 0 -95 -15.5t-55 -49t-24 -70t-6 -93.5v-125q0 -57 6 -93.5t24 -69.5t55 -48.5t95 -15.5q100 0 137.5 47t40.5 141h182q-3 -162 -99 -246.5t-261 -84.5q-167 0 -263.5 86.5t-96.5 251.5z" />
<glyph unicode="&#xaa;" horiz-adv-x="753" d="M33 971q0 121 108.5 174t319.5 53h67v51q0 94 -149 94q-66 0 -107.5 -24.5t-50.5 -73.5h-160q6 61 35.5 105t76.5 68t100.5 35t115.5 11q75 0 138 -19t107 -65.5t44 -115.5v-484h-148v68q-43 -42 -111.5 -64t-137.5 -22q-106 0 -177 51.5t-71 157.5zM193 971 q0 -25 14.5 -43t38 -27.5t47 -13.5t47.5 -4q60 0 115.5 29.5t62.5 86.5v78h-74q-110 0 -180.5 -27t-70.5 -79z" />
<glyph unicode="&#xab;" horiz-adv-x="948" d="M102 442v230l318 252v-211l-195 -156l195 -156v-211zM508 442v230l317 252v-211l-194 -156l194 -156v-211z" />
<glyph unicode="&#xac;" horiz-adv-x="1228" d="M98 621v208h1032v-608h-208v400h-824z" />
<glyph unicode="&#xad;" horiz-adv-x="796" d="M100 446v222h596v-222h-596z" />
<glyph unicode="&#xae;" horiz-adv-x="1638" d="M68 731q0 224 104 401t275 271t374 94q150 0 286.5 -55.5t239 -154t163.5 -243.5t61 -313t-61 -313t-163.5 -243.5t-239 -154t-286.5 -55.5q-162 0 -302.5 58.5t-239.5 160.5t-155 243.5t-56 303.5zM231 731q0 -130 41.5 -245.5t116 -201.5t186.5 -136t246 -50 q122 0 230 46.5t186.5 129t124 201t45.5 256.5q0 137 -45.5 255.5t-124 201t-186.5 129.5t-230 47q-123 0 -232 -47t-188 -129.5t-124.5 -201t-45.5 -255.5zM530 293v848h322q156 0 232.5 -58.5t76.5 -185.5q0 -207 -221 -231l238 -373h-158l-219 362h-131v-362h-140z M670 774h155q36 0 61 2t53 9.5t44.5 21.5t27.5 39t11 61t-16 60.5t-45.5 35.5t-57.5 15t-65 4h-168v-248z" />
<glyph unicode="&#xaf;" horiz-adv-x="493" d="M-47 1268v133h590v-133h-590z" />
<glyph unicode="&#xb0;" horiz-adv-x="819" d="M102 1155q0 127 90 217t218 90t217.5 -90t89.5 -217t-89.5 -217t-217.5 -90t-218 90t-90 217zM217 1155q0 -79 56.5 -135.5t136.5 -56.5t136 56.5t56 135.5q0 80 -56.5 136.5t-135.5 56.5q-80 0 -136.5 -57t-56.5 -136z" />
<glyph unicode="&#xb1;" horiz-adv-x="1228" d="M98 0v209h1032v-209h-1032zM98 571v209h412v256h209v-256h411v-209h-411v-256h-209v256h-412z" />
<glyph unicode="&#xb2;" horiz-adv-x="737" d="M49 559v129q299 244 348 283q133 102 140 215q2 57 -33.5 96t-124.5 39q-86 0 -121.5 -50t-38.5 -151h-153q0 152 85 247t238 95q149 0 225 -81.5t76 -190.5q0 -153 -196 -320l-226 -161h420v-150h-639z" />
<glyph unicode="&#xb3;" horiz-adv-x="737" d="M33 858h164q-3 -75 43 -124.5t129 -49.5q74 0 124 39.5t50 105.5q0 47 -20 78t-57.5 45t-76.5 18.5t-90 2.5v119q86 -3 146.5 27.5t60.5 97.5q0 51 -43 76.5t-98 25.5q-68 0 -110.5 -44.5t-39.5 -111.5h-164q6 141 90.5 220t225.5 79q60 0 112 -13t96 -40t69.5 -74 t25.5 -110q0 -66 -33 -114t-98 -71v-4q78 -13 123 -71.5t45 -143.5q0 -131 -96.5 -205.5t-241.5 -74.5q-164 0 -248.5 82.5t-87.5 234.5z" />
<glyph unicode="&#xb4;" horiz-adv-x="493" d="M92 1204l184 293h277l-291 -293h-170z" />
<glyph unicode="&#xb5;" d="M123 -391v1450h233v-649q0 -135 51.5 -194.5t151.5 -59.5q260 0 260 288v615h234v-1059h-230v147h-4q-41 -77 -123 -126.5t-155 -49.5q-122 0 -185 74v-436h-233z" />
<glyph unicode="&#xb6;" horiz-adv-x="1228" d="M63 1077q0 198 127 291.5t351 93.5h530v-1790h-164v1657h-239v-1657h-164v1033q-198 0 -319.5 104.5t-121.5 267.5z" />
<glyph unicode="&#xb7;" horiz-adv-x="569" d="M131 618q0 60 47 106t107 46q61 0 107 -46t46 -106q0 -62 -45.5 -108.5t-107.5 -46.5q-63 0 -108.5 46.5t-45.5 108.5z" />
<glyph unicode="&#xb8;" horiz-adv-x="493" d="M18 -410l37 82q5 -2 25 -8.5t28.5 -9t24.5 -7t29 -6t26 -1.5q125 0 125 84q0 36 -28.5 56.5t-65.5 20.5q-44 0 -80 -20l-45 39l135 180h99l-92 -119v-4q16 6 67 6q68 0 121 -39.5t53 -111.5q0 -50 -21.5 -87t-58.5 -58t-79 -30.5t-89 -9.5q-53 0 -114 11t-97 32z" />
<glyph unicode="&#xb9;" horiz-adv-x="737" d="M100 1178l244 264h156v-885h-178v606l-101 -104z" />
<glyph unicode="&#xba;" horiz-adv-x="778" d="M31 1081v64q0 155 97.5 236t264.5 81q169 0 267 -81t98 -236v-64q0 -155 -98 -236t-267 -81q-167 0 -264.5 81t-97.5 236zM213 1112q0 -54 6 -88t24 -65t55 -45.5t95 -14.5q47 0 81 10.5t53.5 28t30 46t14 57.5t3.5 71t-3.5 71.5t-14 58.5t-30 46.5t-53.5 28t-81 10.5 q-58 0 -95 -14.5t-55 -45.5t-24 -66t-6 -89z" />
<glyph unicode="&#xbb;" horiz-adv-x="948" d="M123 190v211l194 156l-194 156v211l317 -252v-230zM528 190v211l195 156l-195 156v211l318 -252v-230z" />
<glyph unicode="&#xbc;" horiz-adv-x="1708" d="M102 1178l244 264h156v-885h-178v606l-101 -104zM289 -49l858 1532h160l-856 -1532h-162zM895 199v166l379 512h199v-525h96v-153h-96v-199h-179v199h-399zM1051 352h243v324h-4z" />
<glyph unicode="&#xbd;" horiz-adv-x="1708" d="M100 1178l244 264h156v-885h-178v606l-101 -104zM281 -49l858 1532h159l-856 -1532h-161zM973 2v129q299 244 348 283q132 101 139 215q2 57 -33 96t-124 39q-86 0 -121.5 -50t-38.5 -151h-154q0 152 85.5 247t238.5 95q149 0 225 -81.5t76 -190.5q0 -152 -197 -320 l-225 -161h420v-150h-639z" />
<glyph unicode="&#xbe;" horiz-adv-x="1708" d="M33 858h164q-3 -75 43 -124.5t129 -49.5q74 0 124 39.5t50 105.5q0 46 -20 76.5t-57.5 44.5t-76.5 18.5t-90 2.5v119q86 -3 146.5 28t60.5 99q0 51 -43 76.5t-98 25.5q-68 0 -110.5 -44.5t-39.5 -111.5h-164q6 141 90.5 220t225.5 79q60 0 112 -13t96 -40t69.5 -74 t25.5 -110q0 -66 -33 -114t-98 -71v-4q78 -13 123 -71.5t45 -143.5q0 -131 -96.5 -205.5t-241.5 -74.5q-164 0 -248.5 82.5t-87.5 234.5zM401 -49l859 1532h159l-856 -1532h-162zM971 199v166l375 512h202v-525h97v-153h-97v-199h-178v199h-399zM1126 352h244v324h-4z" />
<glyph unicode="&#xbf;" horiz-adv-x="1138" d="M100 -6q0 56 11.5 103.5t24.5 76.5t44 64t46 49t55 47q42 36 60 52t47 50t41 63.5t22 76.5t10 104h221q0 -117 -18.5 -194.5t-50.5 -124t-91 -97.5q-6 -6 -35.5 -30.5t-37 -31.5t-29 -29t-28 -35.5t-18 -36t-15 -46.5t-3.5 -53q0 -55 20.5 -99t52.5 -68.5t65 -37 t63 -12.5q122 0 185 80t63 215h233q2 -220 -132.5 -355t-358.5 -135q-193 0 -320 109t-127 295zM430 831v256h275v-256h-275z" />
<glyph unicode="&#xc0;" horiz-adv-x="1366" d="M-14 0l561 1462h272l563 -1462h-274l-137 387h-584l-137 -387h-264zM377 1901h274l187 -293h-170zM457 582h446l-219 628h-6z" />
<glyph unicode="&#xc1;" horiz-adv-x="1366" d="M-14 0l561 1462h272l563 -1462h-274l-137 387h-584l-137 -387h-264zM457 582h446l-219 628h-6zM528 1577l185 293h276l-291 -293h-170z" />
<glyph unicode="&#xc2;" horiz-adv-x="1366" d="M-14 0l561 1462h272l563 -1462h-274l-137 387h-584l-137 -387h-264zM350 1608l219 293h228l221 -293h-191l-145 184l-143 -184h-189zM457 582h446l-219 628h-6z" />
<glyph unicode="&#xc3;" horiz-adv-x="1366" d="M-14 0l561 1462h272l563 -1462h-274l-137 387h-584l-137 -387h-264zM322 1622q14 89 70.5 160t142.5 71q76 0 165 -38q9 -4 33 -13.5t35 -13.5t28 -8t31 -4q79 0 103 90h114q-16 -106 -67 -166q-60 -70 -160 -70q-41 0 -151 39q-98 37 -142 37q-34 0 -60 -27t-26 -57 h-116zM457 582h446l-219 628h-6z" />
<glyph unicode="&#xc4;" horiz-adv-x="1366" d="M-14 0l561 1462h272l563 -1462h-274l-137 387h-584l-137 -387h-264zM391 1630v221h234v-221h-234zM457 582h446l-219 628h-6zM743 1630v221h234v-221h-234z" />
<glyph unicode="&#xc5;" horiz-adv-x="1366" d="M-14 0l561 1462h272l563 -1462h-274l-137 387h-584l-137 -387h-264zM457 582h446l-219 628h-6zM473 1739q0 86 63 148.5t148 62.5q86 0 148.5 -62.5t62.5 -148.5q0 -85 -62.5 -148t-148.5 -63q-85 0 -148 63t-63 148zM559 1739q0 -49 37.5 -87t87.5 -38q51 0 88 37.5 t37 87.5q0 51 -37 88t-88 37q-50 0 -87.5 -37t-37.5 -88z" />
<glyph unicode="&#xc6;" horiz-adv-x="1972" d="M-14 0l727 1462h1179v-221h-712v-383h667v-209h-667v-428h725v-221h-969v375h-490l-176 -375h-284zM541 569h395v672h-74z" />
<glyph unicode="&#xc7;" horiz-adv-x="1478" d="M139 532v404q0 274 161 417.5t439 143.5q260 0 418.5 -125.5t179.5 -367.5h-262q-7 59 -25.5 104.5t-55.5 85t-101 61t-154 21.5q-69 0 -123.5 -14t-90 -35t-61 -56.5t-39 -68t-20.5 -81t-8.5 -83t-1.5 -86.5v-236q0 -52 1.5 -86.5t8.5 -83t20.5 -80.5t39 -67.5t61 -56.5 t90 -35t123.5 -14q87 0 150.5 22t99.5 55t57.5 85t28.5 99t8 109h256v-31q0 -259 -145 -402t-397 -157l-70 -92v-4q16 6 68 6q68 0 121 -39.5t53 -111.5q0 -50 -21.5 -87t-58.5 -58t-79 -30.5t-89 -9.5q-53 0 -114 11t-97 32l37 82q5 -2 25 -8.5t28.5 -9t24.5 -7t29 -6 t26 -1.5q125 0 125 84q0 36 -28.5 56.5t-65.5 20.5q-44 0 -80 -20l-45 39l114 151q-261 11 -411 154t-150 407z" />
<glyph unicode="&#xc8;" horiz-adv-x="1290" d="M156 0v1462h1052v-221h-796v-383h737v-209h-737v-428h811v-221h-1067zM340 1901h274l187 -293h-170z" />
<glyph unicode="&#xc9;" horiz-adv-x="1290" d="M156 0v1462h1052v-221h-796v-383h737v-209h-737v-428h811v-221h-1067zM492 1608l184 293h276l-290 -293h-170z" />
<glyph unicode="&#xca;" horiz-adv-x="1290" d="M156 0v1462h1052v-221h-796v-383h737v-209h-737v-428h811v-221h-1067zM313 1608l219 293h228l221 -293h-190l-146 184l-143 -184h-189z" />
<glyph unicode="&#xcb;" horiz-adv-x="1290" d="M156 0v1462h1052v-221h-796v-383h737v-209h-737v-428h811v-221h-1067zM354 1630v221h234v-221h-234zM707 1630v221h233v-221h-233z" />
<glyph unicode="&#xcc;" horiz-adv-x="569" d="M-20 1901h274l186 -293h-170zM156 0v1462h256v-1462h-256z" />
<glyph unicode="&#xcd;" horiz-adv-x="569" d="M131 1597l184 293h277l-291 -293h-170zM156 0v1462h256v-1462h-256z" />
<glyph unicode="&#xce;" horiz-adv-x="569" d="M-47 1608l219 293h227l222 -293h-191l-145 184l-144 -184h-188zM156 0v1462h256v-1462h-256z" />
<glyph unicode="&#xcf;" horiz-adv-x="569" d="M-6 1630v221h233v-221h-233zM156 0v1462h256v-1462h-256zM346 1630v221h234v-221h-234z" />
<glyph unicode="&#xd0;" horiz-adv-x="1404" d="M16 649v209h140v604h508q278 0 439 -143.5t161 -417.5v-340q0 -274 -161 -417.5t-439 -143.5h-508v649h-140zM412 209h252q69 0 123.5 14t90 35t61 56.5t39 68t20.5 81t8.5 83t1.5 86.5v196q0 52 -1.5 86.5t-8.5 83t-20.5 81t-39 68t-61 56.5t-90 35t-123.5 14h-252v-395 h397v-209h-397v-440z" />
<glyph unicode="&#xd1;" horiz-adv-x="1478" d="M145 0v1462h271l667 -1077h4v1077h244v-1462h-270l-666 1075h-6v-1075h-244zM379 1622q14 89 70.5 160t142.5 71q77 0 166 -38q9 -4 33 -13.5t35 -13.5t28 -8t31 -4q78 0 102 90h115q-16 -105 -68 -166q-60 -70 -160 -70q-40 0 -151 39q-98 37 -141 37q-34 0 -60 -27 t-26 -57h-117z" />
<glyph unicode="&#xd2;" horiz-adv-x="1476" d="M139 526v404q0 274 161 417.5t439 143.5t439 -143.5t161 -417.5v-404q0 -274 -161 -417.5t-439 -143.5t-439 143.5t-161 417.5zM395 610q0 -52 1.5 -86.5t8.5 -83t20.5 -81t39 -68t61 -56.5t90 -35t123.5 -14t123.5 14t90 35t61 56.5t39 68t20.5 81t8.5 83t1.5 86.5v236 q0 52 -1.5 86.5t-8.5 83t-20.5 81t-39 68t-61 56.5t-90 35t-123.5 14t-123.5 -14t-90 -35t-61 -56.5t-39 -68t-20.5 -81t-8.5 -83t-1.5 -86.5v-236zM473 1901h275l186 -293h-170z" />
<glyph unicode="&#xd3;" horiz-adv-x="1480" d="M139 526v404q0 274 161 417.5t439 143.5t439 -143.5t161 -417.5v-404q0 -274 -161 -417.5t-439 -143.5t-439 143.5t-161 417.5zM395 610q0 -52 1.5 -86.5t8.5 -83t20.5 -81t39 -68t61 -56.5t90 -35t123.5 -14t123.5 14t90 35t61 56.5t39 68t20.5 81t8.5 83t1.5 86.5v236 q0 52 -1.5 86.5t-8.5 83t-20.5 81t-39 68t-61 56.5t-90 35t-123.5 14t-123.5 -14t-90 -35t-61 -56.5t-39 -68t-20.5 -81t-8.5 -83t-1.5 -86.5v-236zM625 1577l184 293h276l-290 -293h-170z" />
<glyph unicode="&#xd4;" horiz-adv-x="1480" d="M139 526v404q0 274 161 417.5t439 143.5t439 -143.5t161 -417.5v-404q0 -274 -161 -417.5t-439 -143.5t-439 143.5t-161 417.5zM395 610q0 -52 1.5 -86.5t8.5 -83t20.5 -81t39 -68t61 -56.5t90 -35t123.5 -14t123.5 14t90 35t61 56.5t39 68t20.5 81t8.5 83t1.5 86.5v236 q0 52 -1.5 86.5t-8.5 83t-20.5 81t-39 68t-61 56.5t-90 35t-123.5 14t-123.5 -14t-90 -35t-61 -56.5t-39 -68t-20.5 -81t-8.5 -83t-1.5 -86.5v-236zM406 1608l219 293h227l221 -293h-190l-146 184l-143 -184h-188z" />
<glyph unicode="&#xd5;" horiz-adv-x="1478" d="M139 526v404q0 274 161 417.5t439 143.5t439 -143.5t161 -417.5v-404q0 -274 -161 -417.5t-439 -143.5t-439 143.5t-161 417.5zM377 1622q14 89 70.5 160t142.5 71q77 0 166 -38q9 -4 33 -13.5t35 -13.5t28 -8t31 -4q78 0 102 90h115q-16 -105 -68 -166q-60 -70 -160 -70 q-40 0 -151 39q-98 37 -141 37q-34 0 -60 -27t-26 -57h-117zM395 610q0 -52 1.5 -86.5t8.5 -83t20.5 -81t39 -68t61 -56.5t90 -35t123.5 -14t123.5 14t90 35t61 56.5t39 68t20.5 81t8.5 83t1.5 86.5v236q0 52 -1.5 86.5t-8.5 83t-20.5 81t-39 68t-61 56.5t-90 35t-123.5 14 t-123.5 -14t-90 -35t-61 -56.5t-39 -68t-20.5 -81t-8.5 -83t-1.5 -86.5v-236z" />
<glyph unicode="&#xd6;" horiz-adv-x="1476" d="M139 526v404q0 274 161 417.5t439 143.5t439 -143.5t161 -417.5v-404q0 -274 -161 -417.5t-439 -143.5t-439 143.5t-161 417.5zM395 610q0 -52 1.5 -86.5t8.5 -83t20.5 -81t39 -68t61 -56.5t90 -35t123.5 -14t123.5 14t90 35t61 56.5t39 68t20.5 81t8.5 83t1.5 86.5v236 q0 52 -1.5 86.5t-8.5 83t-20.5 81t-39 68t-61 56.5t-90 35t-123.5 14t-123.5 -14t-90 -35t-61 -56.5t-39 -68t-20.5 -81t-8.5 -83t-1.5 -86.5v-236zM449 1630v221h233v-221h-233zM801 1630v221h233v-221h-233z" />
<glyph unicode="&#xd7;" horiz-adv-x="1228" d="M113 162l356 356l-356 356l176 115l323 -325l328 325l176 -115l-358 -356l358 -356l-176 -115l-328 328l-323 -328z" />
<glyph unicode="&#xd8;" horiz-adv-x="1480" d="M41 31l168 190q-72 126 -72 305v404q0 274 161 417.5t439 143.5q300 0 457 -160l152 170l88 -74l-168 -190q71 -124 71 -307v-404q0 -274 -161 -417.5t-439 -143.5q-299 0 -458 164l-152 -172zM393 610q0 -115 10 -170l625 703q-79 127 -291 127q-69 0 -123.5 -14 t-90 -35t-61 -56.5t-39 -68t-20.5 -81t-8.5 -83t-1.5 -86.5v-236zM446 315q76 -129 291 -129q69 0 123.5 14t90 35t61 56.5t39 68t20.5 81t8.5 83t1.5 86.5v236q0 103 -10 174z" />
<glyph unicode="&#xd9;" horiz-adv-x="1478" d="M139 526v936h256v-852q0 -52 1.5 -86.5t8.5 -83t20.5 -81t39 -68t61 -56.5t90 -35t123.5 -14t123.5 14t90 35t61 56.5t39 68t20.5 81t8.5 83t1.5 86.5v852h256v-936q0 -274 -161 -417.5t-439 -143.5t-439 143.5t-161 417.5zM434 1901h275l186 -293h-170z" />
<glyph unicode="&#xda;" horiz-adv-x="1478" d="M139 526v936h256v-852q0 -52 1.5 -86.5t8.5 -83t20.5 -81t39 -68t61 -56.5t90 -35t123.5 -14t123.5 14t90 35t61 56.5t39 68t20.5 81t8.5 83t1.5 86.5v852h256v-936q0 -274 -161 -417.5t-439 -143.5t-439 143.5t-161 417.5zM586 1577l184 293h277l-291 -293h-170z" />
<glyph unicode="&#xdb;" horiz-adv-x="1478" d="M139 526v936h256v-852q0 -52 1.5 -86.5t8.5 -83t20.5 -81t39 -68t61 -56.5t90 -35t123.5 -14t123.5 14t90 35t61 56.5t39 68t20.5 81t8.5 83t1.5 86.5v852h256v-936q0 -274 -161 -417.5t-439 -143.5t-439 143.5t-161 417.5zM408 1608l219 293h227l221 -293h-190l-146 184 l-143 -184h-188z" />
<glyph unicode="&#xdc;" horiz-adv-x="1478" d="M139 526v936h256v-852q0 -52 1.5 -86.5t8.5 -83t20.5 -81t39 -68t61 -56.5t90 -35t123.5 -14t123.5 14t90 35t61 56.5t39 68t20.5 81t8.5 83t1.5 86.5v852h256v-936q0 -274 -161 -417.5t-439 -143.5t-439 143.5t-161 417.5zM449 1630v221h233v-221h-233zM801 1630v221 h233v-221h-233z" />
<glyph unicode="&#xdd;" horiz-adv-x="1327" d="M-12 1462h297l387 -655l381 655h286l-546 -889v-573h-256v573zM510 1577l184 293h277l-291 -293h-170z" />
<glyph unicode="&#xde;" horiz-adv-x="1366" d="M156 0v1462h256v-221h389q120 0 211.5 -30.5t144.5 -76t86 -109t44 -120t11 -117.5q0 -60 -11 -116t-44 -118.5t-86 -108t-144.5 -75.5t-211.5 -30h-389v-340h-256zM412 549h374q46 0 89 12.5t81.5 39t62 75.5t23.5 115q0 70 -19.5 119t-56 74.5t-79 36.5t-96.5 11h-379 v-483z" />
<glyph unicode="&#xdf;" d="M129 0v1071q0 196 125 311t324 115q112 0 210 -42t162 -128t64 -199q0 -108 -53.5 -193t-155.5 -116v-4q83 -10 146.5 -62.5t95.5 -128t32 -159.5q0 -216 -128 -355t-341 -139q-56 0 -114 6v185q30 -6 79 -6q70 0 121 20.5t79 51t45 76t21.5 84.5t4.5 87q0 131 -113 201 q-82 51 -235 51v154q134 0 202 53q80 66 80 172q0 207 -207 207q-31 0 -58.5 -6.5t-56 -25t-49.5 -47t-34 -76.5t-13 -111v-1047h-233z" />
<glyph unicode="&#xe0;" horiz-adv-x="1122" d="M66 291q0 189 162 284t464 95h99v92q0 43 -20.5 73t-55.5 44.5t-69.5 20t-74.5 5.5q-102 0 -164 -42t-69 -126h-234q5 79 34.5 141t75 101t107.5 64.5t127 36t138 10.5q81 0 154 -17.5t135 -52.5t98.5 -96.5t36.5 -141.5v-780h-215v100q-65 -64 -165.5 -96.5 t-201.5 -32.5q-73 0 -135.5 17.5t-114.5 54t-82 100t-30 146.5zM264 1497h275l186 -293h-170zM299 293q0 -38 21.5 -65.5t56 -42t69 -21t68.5 -6.5q54 0 107 16t99.5 58.5t53.5 103.5l2 149h-110q-152 0 -259.5 -56t-107.5 -136z" />
<glyph unicode="&#xe1;" horiz-adv-x="1122" d="M66 291q0 189 162 284t464 95h99v92q0 43 -20.5 73t-55.5 44.5t-69.5 20t-74.5 5.5q-102 0 -164 -42t-69 -126h-234q5 79 34.5 141t75 101t107.5 64.5t127 36t138 10.5q81 0 154 -17.5t135 -52.5t98.5 -96.5t36.5 -141.5v-780h-215v100q-65 -64 -165.5 -96.5 t-201.5 -32.5q-73 0 -135.5 17.5t-114.5 54t-82 100t-30 146.5zM299 293q0 -38 21.5 -65.5t56 -42t69 -21t68.5 -6.5q54 0 107 16t99.5 58.5t53.5 103.5l2 149h-110q-152 0 -259.5 -56t-107.5 -136zM416 1204l184 293h277l-291 -293h-170z" />
<glyph unicode="&#xe2;" horiz-adv-x="1122" d="M66 291q0 189 162 284t464 95h99v92q0 43 -20.5 73t-55.5 44.5t-69.5 20t-74.5 5.5q-102 0 -164 -42t-69 -126h-234q5 79 34.5 141t75 101t107.5 64.5t127 36t138 10.5q81 0 154 -17.5t135 -52.5t98.5 -96.5t36.5 -141.5v-780h-215v100q-65 -64 -165.5 -96.5 t-201.5 -32.5q-73 0 -135.5 17.5t-114.5 54t-82 100t-30 146.5zM238 1204l219 293h227l221 -293h-190l-146 185l-143 -185h-188zM299 293q0 -38 21.5 -65.5t56 -42t69 -21t68.5 -6.5q54 0 107 16t99.5 58.5t53.5 103.5l2 149h-110q-152 0 -259.5 -56t-107.5 -136z" />
<glyph unicode="&#xe3;" horiz-adv-x="1122" d="M66 291q0 189 162 284t464 95h99v92q0 43 -20.5 73t-55.5 44.5t-69.5 20t-74.5 5.5q-102 0 -164 -42t-69 -126h-234q5 79 34.5 141t75 101t107.5 64.5t127 36t138 10.5q81 0 154 -17.5t135 -52.5t98.5 -96.5t36.5 -141.5v-780h-215v100q-65 -64 -165.5 -96.5 t-201.5 -32.5q-73 0 -135.5 17.5t-114.5 54t-82 100t-30 146.5zM209 1219q14 89 70.5 160t142.5 71q74 0 166 -39q9 -4 33 -13.5t35 -13.5t28 -8t31 -4q78 0 102 90h115q-16 -105 -68 -166q-59 -69 -159 -69q-41 0 -152 39q-98 37 -141 37q-34 0 -60 -27t-26 -57h-117z M299 293q0 -38 21.5 -65.5t56 -42t69 -21t68.5 -6.5q54 0 107 16t99.5 58.5t53.5 103.5l2 149h-110q-152 0 -259.5 -56t-107.5 -136z" />
<glyph unicode="&#xe4;" horiz-adv-x="1122" d="M66 291q0 189 162 284t464 95h99v92q0 43 -20.5 73t-55.5 44.5t-69.5 20t-74.5 5.5q-102 0 -164 -42t-69 -126h-234q5 79 34.5 141t75 101t107.5 64.5t127 36t138 10.5q81 0 154 -17.5t135 -52.5t98.5 -96.5t36.5 -141.5v-780h-215v100q-65 -64 -165.5 -96.5 t-201.5 -32.5q-73 0 -135.5 17.5t-114.5 54t-82 100t-30 146.5zM279 1227v221h233v-221h-233zM299 293q0 -38 21.5 -65.5t56 -42t69 -21t68.5 -6.5q54 0 107 16t99.5 58.5t53.5 103.5l2 149h-110q-152 0 -259.5 -56t-107.5 -136zM631 1227v221h233v-221h-233z" />
<glyph unicode="&#xe5;" horiz-adv-x="1122" d="M66 291q0 189 162 284t464 95h99v92q0 43 -20.5 73t-55.5 44.5t-69.5 20t-74.5 5.5q-102 0 -164 -42t-69 -126h-234q5 79 34.5 141t75 101t107.5 64.5t127 36t138 10.5q81 0 154 -17.5t135 -52.5t98.5 -96.5t36.5 -141.5v-780h-215v100q-65 -64 -165.5 -96.5 t-201.5 -32.5q-73 0 -135.5 17.5t-114.5 54t-82 100t-30 146.5zM299 293q0 -38 21.5 -65.5t56 -42t69 -21t68.5 -6.5q54 0 107 16t99.5 58.5t53.5 103.5l2 149h-110q-152 0 -259.5 -56t-107.5 -136zM360 1335q0 86 63 148.5t148 62.5q86 0 148.5 -62.5t62.5 -148.5 q0 -85 -62.5 -148t-148.5 -63q-85 0 -148 63t-63 148zM446 1335q0 -49 38 -87t87 -38q51 0 88 37.5t37 87.5q0 51 -37 88t-88 37q-50 0 -87.5 -37t-37.5 -88z" />
<glyph unicode="&#xe6;" horiz-adv-x="1820" d="M66 289q0 165 162.5 249.5t463.5 84.5h99v137q0 43 -20.5 73t-55.5 44.5t-69.5 20t-74.5 5.5q-102 0 -164 -42t-69 -126h-234q6 98 48.5 169t112 109.5t149 56t172.5 17.5q55 0 103 -7.5t80.5 -20t59 -27t42 -29.5t26 -27.5t14.5 -19.5l4 -8q2 6 7.5 15t30 33t57 42.5 t94 33.5t137.5 15q217 0 341 -110.5t124 -323.5v-184h-696v-20q0 -58 4 -98t18 -79.5t39 -63t67.5 -38t102.5 -14.5q110 0 161 45t64 131h236q-21 -176 -143.5 -268.5t-317.5 -92.5q-74 0 -140 17.5t-107 42t-71 49t-43 42.5l-12 17q-5 -7 -14.5 -18t-47 -40t-83.5 -51.5 t-125 -40.5t-170 -18q-73 0 -135.5 17.5t-114.5 54t-82 100t-30 146.5zM299 291q0 -38 21.5 -65.5t56 -42t69 -21t68.5 -6.5q39 0 80 10t80.5 29.5t67 55.5t32.5 83l2 137h-108q-369 0 -369 -180zM1010 623h463q0 69 -8.5 115t-32 86t-71 59.5t-120.5 19.5t-120 -19 t-70.5 -59.5t-31.5 -86t-9 -115.5z" />
<glyph unicode="&#xe7;" horiz-adv-x="1155" d="M123 406v247q0 212 125 323t340 111q202 0 325 -97t138 -285h-236q-10 99 -60 148.5t-167 49.5q-60 0 -102.5 -14.5t-67.5 -38t-39 -63t-18.5 -79.5t-4.5 -98v-161q0 -58 4.5 -98t18.5 -79.5t39 -63t67.5 -38t102.5 -14.5q129 0 177.5 60t53.5 181h234q-3 -194 -112 -302 t-298 -122l-70 -92v-4q16 6 68 6q68 0 121 -39.5t53 -111.5q0 -50 -21.5 -87t-58.5 -58t-79 -30.5t-89 -9.5q-53 0 -114 11t-97 32l37 82q5 -2 25 -8.5t28.5 -9t24.5 -7t29 -6t26 -1.5q125 0 125 84q0 36 -28.5 56.5t-65.5 20.5q-44 0 -80 -20l-45 39l115 153 q-197 9 -310.5 120.5t-113.5 312.5z" />
<glyph unicode="&#xe8;" d="M123 406v247q0 212 125 323t340 111t340 -111t125 -323v-184h-697v-20q0 -58 4 -98t18 -79.5t39 -63t67.5 -38t103.5 -14.5q111 0 160.5 44t62.5 132h238q-23 -178 -144.5 -269.5t-316.5 -91.5q-215 0 -340 111t-125 324zM264 1497h275l186 -293h-170zM356 623h463 q-1 55 -5.5 93.5t-19 76t-39 60t-66.5 36.5t-101 14t-101 -14t-67 -36.5t-39.5 -60t-19 -76t-5.5 -93.5z" />
<glyph unicode="&#xe9;" d="M123 406v247q0 212 125 323t340 111t340 -111t125 -323v-184h-697v-20q0 -58 4 -98t18 -79.5t39 -63t67.5 -38t103.5 -14.5q111 0 160.5 44t62.5 132h238q-23 -178 -144.5 -269.5t-316.5 -91.5q-215 0 -340 111t-125 324zM356 623h463q-1 55 -5.5 93.5t-19 76t-39 60 t-66.5 36.5t-101 14t-101 -14t-67 -36.5t-39.5 -60t-19 -76t-5.5 -93.5zM416 1204l184 293h277l-291 -293h-170z" />
<glyph unicode="&#xea;" d="M123 406v247q0 212 125 323t340 111t340 -111t125 -323v-184h-697v-20q0 -58 4 -98t18 -79.5t39 -63t67.5 -38t103.5 -14.5q111 0 160.5 44t62.5 132h238q-23 -178 -144.5 -269.5t-316.5 -91.5q-215 0 -340 111t-125 324zM238 1204l219 293h227l221 -293h-190l-146 185 l-143 -185h-188zM356 623h463q-1 55 -5.5 93.5t-19 76t-39 60t-66.5 36.5t-101 14t-101 -14t-67 -36.5t-39.5 -60t-19 -76t-5.5 -93.5z" />
<glyph unicode="&#xeb;" d="M123 406v247q0 212 125 323t340 111t340 -111t125 -323v-184h-697v-20q0 -58 4 -98t18 -79.5t39 -63t67.5 -38t103.5 -14.5q111 0 160.5 44t62.5 132h238q-23 -178 -144.5 -269.5t-316.5 -91.5q-215 0 -340 111t-125 324zM279 1227v221h233v-221h-233zM356 623h463 q-1 55 -5.5 93.5t-19 76t-39 60t-66.5 36.5t-101 14t-101 -14t-67 -36.5t-39.5 -60t-19 -76t-5.5 -93.5zM631 1227v221h233v-221h-233z" />
<glyph unicode="&#xec;" horiz-adv-x="493" d="M-59 1497h274l186 -293h-170zM129 0v1059h233v-1059h-233z" />
<glyph unicode="&#xed;" horiz-adv-x="493" d="M92 1204l184 293h277l-291 -293h-170zM129 0v1059h233v-1059h-233z" />
<glyph unicode="&#xee;" horiz-adv-x="493" d="M-86 1204l219 293h227l222 -293h-191l-145 185l-144 -185h-188zM129 0v1059h233v-1059h-233z" />
<glyph unicode="&#xef;" horiz-adv-x="493" d="M-45 1227v221h233v-221h-233zM129 0v1059h233v-1059h-233zM307 1227v221h234v-221h-234z" />
<glyph unicode="&#xf0;" horiz-adv-x="1214" d="M86 516q0 101 32 194.5t89.5 166t145 116t190.5 43.5q168 0 293 -90h4q-57 130 -222 268l-221 -106l-102 100l197 95q-115 51 -175 69l156 125q114 -37 213 -102l215 102l100 -100l-192 -92q153 -126 235 -300t82 -372q0 -111 -18.5 -208t-60.5 -181.5t-105 -144 t-156.5 -94t-210.5 -34.5q-229 0 -359 150.5t-130 394.5zM319 502q0 -97 27.5 -173t90.5 -124.5t153 -48.5q135 0 219 103.5t84 242.5q0 68 -16.5 129t-49 111.5t-88 80t-127.5 29.5q-79 0 -137 -27.5t-91.5 -77.5t-49 -110.5t-15.5 -134.5z" />
<glyph unicode="&#xf1;" d="M123 0v1059h221v-156l4 -4q53 88 139.5 138t190.5 50q175 0 275 -92.5t100 -267.5v-727h-234v666q0 123 -51.5 180t-155.5 57q-115 0 -185.5 -79.5t-70.5 -198.5v-625h-233zM227 1219q14 89 70.5 160t142.5 71q74 0 166 -39q9 -4 33 -13.5t35 -13.5t28 -8t31 -4 q79 0 103 90h114q-16 -106 -67 -166q-59 -69 -160 -69q-41 0 -152 39q-98 37 -141 37q-34 0 -60 -27t-26 -57h-117z" />
<glyph unicode="&#xf2;" d="M123 406v247q0 212 125 323t340 111q216 0 340.5 -111t124.5 -323v-247q0 -213 -124.5 -324t-340.5 -111q-215 0 -340 111t-125 324zM301 1497h274l187 -293h-170zM356 449q0 -58 4.5 -98t18.5 -79.5t39 -63t67.5 -38t102.5 -14.5q61 0 103.5 14.5t67 38t38.5 63.5 t18 79.5t4 97.5v161q0 58 -4 97.5t-18 79.5t-38.5 63.5t-67 38t-103.5 14.5q-60 0 -102.5 -14.5t-67.5 -38t-39 -63t-18.5 -79.5t-4.5 -98v-161z" />
<glyph unicode="&#xf3;" d="M123 406v247q0 212 125 323t340 111q216 0 340.5 -111t124.5 -323v-247q0 -213 -124.5 -324t-340.5 -111q-215 0 -340 111t-125 324zM356 449q0 -58 4.5 -98t18.5 -79.5t39 -63t67.5 -38t102.5 -14.5q61 0 103.5 14.5t67 38t38.5 63.5t18 79.5t4 97.5v161q0 58 -4 97.5 t-18 79.5t-38.5 63.5t-67 38t-103.5 14.5q-60 0 -102.5 -14.5t-67.5 -38t-39 -63t-18.5 -79.5t-4.5 -98v-161zM453 1204l184 293h276l-290 -293h-170z" />
<glyph unicode="&#xf4;" d="M123 406v247q0 212 125 323t340 111q216 0 340.5 -111t124.5 -323v-247q0 -213 -124.5 -324t-340.5 -111q-215 0 -340 111t-125 324zM274 1204l220 293h227l221 -293h-190l-146 185l-143 -185h-189zM356 449q0 -58 4.5 -98t18.5 -79.5t39 -63t67.5 -38t102.5 -14.5 q61 0 103.5 14.5t67 38t38.5 63.5t18 79.5t4 97.5v161q0 58 -4 97.5t-18 79.5t-38.5 63.5t-67 38t-103.5 14.5q-60 0 -102.5 -14.5t-67.5 -38t-39 -63t-18.5 -79.5t-4.5 -98v-161z" />
<glyph unicode="&#xf5;" d="M123 406v247q0 212 125 323t340 111q216 0 340.5 -111t124.5 -323v-247q0 -213 -124.5 -324t-340.5 -111q-215 0 -340 111t-125 324zM246 1219q14 89 70.5 160t142.5 71q74 0 166 -39q9 -4 33 -13.5t35 -13.5t28 -8t31 -4q78 0 102 90h115q-16 -105 -68 -166 q-59 -69 -160 -69q-41 0 -151 39q-98 37 -141 37q-34 0 -60.5 -27t-26.5 -57h-116zM356 449q0 -58 4.5 -98t18.5 -79.5t39 -63t67.5 -38t102.5 -14.5q61 0 103.5 14.5t67 38t38.5 63.5t18 79.5t4 97.5v161q0 58 -4 97.5t-18 79.5t-38.5 63.5t-67 38t-103.5 14.5 q-60 0 -102.5 -14.5t-67.5 -38t-39 -63t-18.5 -79.5t-4.5 -98v-161z" />
<glyph unicode="&#xf6;" d="M123 406v247q0 212 125 323t340 111q216 0 340.5 -111t124.5 -323v-247q0 -213 -124.5 -324t-340.5 -111q-215 0 -340 111t-125 324zM315 1227v221h234v-221h-234zM356 449q0 -58 4.5 -98t18.5 -79.5t39 -63t67.5 -38t102.5 -14.5q61 0 103.5 14.5t67 38t38.5 63.5 t18 79.5t4 97.5v161q0 58 -4 97.5t-18 79.5t-38.5 63.5t-67 38t-103.5 14.5q-60 0 -102.5 -14.5t-67.5 -38t-39 -63t-18.5 -79.5t-4.5 -98v-161zM668 1227v221h233v-221h-233z" />
<glyph unicode="&#xf7;" horiz-adv-x="1228" d="M98 414v209h1032v-209h-1032zM467 96q0 61 44 104.5t103 43.5q60 0 104 -44t44 -104q0 -56 -44 -101.5t-102 -45.5q-60 0 -104.5 43.5t-44.5 103.5zM467 940q0 61 44 104t103 43q60 0 104 -43.5t44 -103.5q0 -56 -44 -101.5t-102 -45.5q-60 0 -104.5 43.5t-44.5 103.5z " />
<glyph unicode="&#xf8;" horiz-adv-x="1196" d="M66 0l141 156q-64 103 -64 250v247q0 212 125 323t340 111q224 0 346 -116l131 145l66 -57l-141 -156q63 -101 63 -250v-247q0 -213 -125 -324t-340 -111q-222 0 -346 115l-131 -143zM377 449q0 -41 4 -103l426 465q-50 92 -199 92q-61 0 -103.5 -14.5t-67.5 -38 t-38.5 -63t-17.5 -79.5t-4 -98v-161zM410 248q48 -92 198 -92q61 0 103.5 14.5t67.5 38t39 63.5t18 79.5t4 97.5v161q0 37 -4 103z" />
<glyph unicode="&#xf9;" d="M123 387v672h233v-649q0 -135 51.5 -194.5t151.5 -59.5q260 0 260 288v615h234v-1059h-230v147h-4q-42 -78 -127 -127t-174 -49q-204 0 -299.5 103t-95.5 313zM283 1497h274l186 -293h-170z" />
<glyph unicode="&#xfa;" d="M123 387v672h233v-649q0 -135 51.5 -194.5t151.5 -59.5q260 0 260 288v615h234v-1059h-230v147h-4q-42 -78 -127 -127t-174 -49q-204 0 -299.5 103t-95.5 313zM434 1204l184 293h277l-291 -293h-170z" />
<glyph unicode="&#xfb;" d="M123 387v672h233v-649q0 -135 51.5 -194.5t151.5 -59.5q260 0 260 288v615h234v-1059h-230v147h-4q-42 -78 -127 -127t-174 -49q-204 0 -299.5 103t-95.5 313zM256 1204l219 293h227l222 -293h-191l-145 185l-144 -185h-188z" />
<glyph unicode="&#xfc;" d="M123 387v672h233v-649q0 -135 51.5 -194.5t151.5 -59.5q260 0 260 288v615h234v-1059h-230v147h-4q-42 -78 -127 -127t-174 -49q-204 0 -299.5 103t-95.5 313zM297 1227v221h233v-221h-233zM649 1227v221h234v-221h-234z" />
<glyph unicode="&#xfd;" horiz-adv-x="1062" d="M6 1059h256l277 -791h4l268 791h244l-533 -1450h-237l123 395zM377 1204l184 293h277l-291 -293h-170z" />
<glyph unicode="&#xfe;" horiz-adv-x="1183" d="M129 -391v1853h221v-542q36 71 107 119t168 48q205 0 319.5 -110.5t114.5 -323.5v-247q0 -214 -114.5 -324.5t-319.5 -110.5q-93 0 -166.5 43t-96.5 103v-508h-233zM348 449q0 -58 4.5 -98t18.5 -79.5t40 -63t69.5 -38t105.5 -14.5q52 0 91.5 9.5t65.5 29t42.5 43 t25 59.5t11.5 70t3 82v161q0 48 -3 82t-11.5 70t-25 59.5t-42.5 43t-65.5 29t-91.5 9.5q-62 0 -105.5 -14.5t-69.5 -38t-40 -63t-18.5 -79.5t-4.5 -98v-161z" />
<glyph unicode="&#xff;" horiz-adv-x="1062" d="M6 1059h256l277 -791h4l268 791h244l-533 -1450h-237l123 395zM240 1227v221h233v-221h-233zM592 1227v221h233v-221h-233z" />
<glyph unicode="&#x152;" horiz-adv-x="2238" d="M123 524v410q0 183 78.5 311t212 189t309.5 61q72 0 132 -11t96 -24t71 -38t48.5 -38.5t37.5 -40.5v117h999v-221h-766v-383h703v-209h-703v-428h781v-221h-1014v131q-71 -84 -171 -125t-214 -41q-278 0 -439 143.5t-161 417.5zM379 608q0 -44 1.5 -75.5t6 -73.5t15 -72 t26.5 -64t42 -57t60.5 -43t83.5 -29.5t109 -9.5q96 0 171 26t118 67.5t64.5 88.5t21.5 95v518q0 60 -19.5 110.5t-61 93.5t-117 67t-177.5 24q-66 0 -119 -13.5t-88.5 -35.5t-61.5 -56.5t-40 -68.5t-22.5 -80.5t-10.5 -83.5t-2 -86v-242z" />
<glyph unicode="&#x153;" horiz-adv-x="1871" d="M123 406v247q0 213 125 323.5t340 110.5q81 0 146.5 -16.5t101.5 -39.5t60 -46.5t32 -40.5l8 -16l8.5 17t31.5 38.5t61 48.5t101 38t146 17q217 0 341 -110.5t124 -323.5v-184h-696v-20q0 -58 4 -98t18 -79.5t39 -63t67.5 -38t102.5 -14.5q111 0 161.5 44t63.5 132h236 q-21 -178 -142.5 -269.5t-318.5 -91.5q-85 0 -152 16.5t-102 40t-58 47t-30 39.5l-6 17q-2 -7 -7.5 -17.5t-30.5 -38t-59.5 -48.5t-101 -38.5t-149.5 -17.5q-215 0 -340 111.5t-125 323.5zM356 449q0 -58 4.5 -98t18.5 -79.5t39 -63t67.5 -38t102.5 -14.5q61 0 103.5 14.5 t67 38t38.5 63.5t18 79.5t4 97.5v161q0 58 -4 97.5t-18 79.5t-38.5 63.5t-67 38t-103.5 14.5q-60 0 -102.5 -14.5t-67.5 -38t-39 -63t-18.5 -79.5t-4.5 -98v-161zM1053 623h463q0 69 -8.5 115t-32 86t-71 59.5t-120.5 19.5t-120 -19t-70.5 -59.5t-31.5 -86t-9 -115.5z" />
<glyph unicode="&#x178;" horiz-adv-x="1327" d="M-12 1462h297l387 -655l381 655h286l-546 -889v-573h-256v573zM373 1630v221h233v-221h-233zM725 1630v221h233v-221h-233z" />
<glyph unicode="&#x2c6;" horiz-adv-x="493" d="M-86 1204l219 293h227l222 -293h-191l-145 185l-144 -185h-188z" />
<glyph unicode="&#x2dc;" horiz-adv-x="493" d="M-115 1219q14 89 70.5 160t142.5 71q74 0 166 -39q9 -4 33 -13.5t35 -13.5t28 -8t31 -4q79 0 103 90h114q-16 -106 -67 -166q-59 -69 -160 -69q-41 0 -152 39q-98 37 -141 37q-34 0 -60 -27t-26 -57h-117z" />
<glyph unicode="&#x2000;" horiz-adv-x="975" />
<glyph unicode="&#x2001;" horiz-adv-x="1950" />
<glyph unicode="&#x2002;" horiz-adv-x="975" />
<glyph unicode="&#x2003;" horiz-adv-x="1950" />
<glyph unicode="&#x2004;" horiz-adv-x="650" />
<glyph unicode="&#x2005;" horiz-adv-x="487" />
<glyph unicode="&#x2006;" horiz-adv-x="325" />
<glyph unicode="&#x2007;" horiz-adv-x="325" />
<glyph unicode="&#x2008;" horiz-adv-x="243" />
<glyph unicode="&#x2009;" horiz-adv-x="390" />
<glyph unicode="&#x200a;" horiz-adv-x="108" />
<glyph unicode="&#x2010;" horiz-adv-x="796" d="M100 446v222h596v-222h-596z" />
<glyph unicode="&#x2011;" horiz-adv-x="796" d="M100 446v222h596v-222h-596z" />
<glyph unicode="&#x2012;" horiz-adv-x="796" d="M100 446v222h596v-222h-596z" />
<glyph unicode="&#x2013;" horiz-adv-x="1024" d="M0 446v222h1024v-222h-1024z" />
<glyph unicode="&#x2014;" horiz-adv-x="2048" d="M266 446v222h1516v-222h-1516z" />
<glyph unicode="&#x2018;" horiz-adv-x="569" d="M158 885v276q0 112 72 190t184 111v-119q-61 -22 -93 -69t-32 -113h125v-276h-256z" />
<glyph unicode="&#x2019;" horiz-adv-x="569" d="M158 885v119q125 15 125 182h-125v276h256v-276q0 -120 -69.5 -203t-186.5 -98z" />
<glyph unicode="&#x201a;" horiz-adv-x="569" d="M158 0v276h256v-276q0 -112 -72 -190t-184 -111v119q125 43 125 182h-125z" />
<glyph unicode="&#x201c;" horiz-adv-x="909" d="M123 885v276q0 112 72 190t184 111v-119q-61 -22 -93 -69t-32 -113h125v-276h-256zM530 885v276q0 112 72 190t184 111v-119q-124 -44 -124 -182h124v-276h-256z" />
<glyph unicode="&#x201d;" horiz-adv-x="909" d="M123 885v119q125 43 125 182h-125v276h256v-276q0 -112 -72 -190t-184 -111zM530 885v119q125 43 125 182h-125v276h256v-276q0 -112 -72 -190t-184 -111z" />
<glyph unicode="&#x201e;" horiz-adv-x="909" d="M123 0v276h256v-276q0 -112 -72 -190t-184 -111v119q125 43 125 182h-125zM530 0v276h256v-276q0 -112 -72 -190t-184 -111v119q125 43 125 182h-125z" />
<glyph unicode="&#x2022;" horiz-adv-x="1024" d="M147 731q0 152 106.5 258.5t258.5 106.5t259.5 -106.5t107.5 -258.5t-107.5 -259t-259.5 -107t-258.5 107t-106.5 259z" />
<glyph unicode="&#x2026;" horiz-adv-x="2048" d="M199 0v276h284v-276h-284zM881 0v276h284v-276h-284zM1563 0v276h284v-276h-284z" />
<glyph unicode="&#x202f;" horiz-adv-x="390" />
<glyph unicode="&#x2039;" horiz-adv-x="530" d="M102 442v230l318 252v-211l-195 -156l195 -156v-211z" />
<glyph unicode="&#x203a;" horiz-adv-x="530" d="M111 190v211l194 156l-194 156v211l317 -252v-230z" />
<glyph unicode="&#x205f;" horiz-adv-x="487" />
<glyph unicode="&#x20ac;" horiz-adv-x="1138" d="M-31 500l62 133h71q-10 81 -2 153h-131l62 134h86q26 146 95 263t167 185q134 94 321 94q169 0 275 -49q74 -34 143 -106l-92 -201q-53 92 -143 133q-68 29 -164 29q-144 0 -230 -74q-101 -85 -139 -274l594 4l-61 -133l-549 -5q-5 -42 0 -153h475l-61 -133h-392 q7 -77 43 -144.5t90 -113.5q51 -41 104 -59t126 -17q105 0 182 31q97 38 160 114v-231q-65 -50 -133 -72q-40 -12 -111 -24q-73 -13 -112 -13q-88 0 -177.5 26t-156.5 71q-96 67 -163 182.5t-87 249.5h-152z" />
<glyph unicode="&#x2122;" horiz-adv-x="2027" d="M121 1329v133h680v-133h-258v-711h-164v711h-258zM973 618h147v635h4l248 -467h129l248 467h2v-635h150v844h-195l-264 -489h-2l-273 489h-194v-844z" />
<glyph unicode="&#x25fc;" horiz-adv-x="1054" d="M0 0v1055h1055v-1055h-1055z" />
<glyph unicode="&#xfb01;" horiz-adv-x="1138" d="M18 885v174h175v94q0 161 104 240q108 75 293 75q151 0 348 -79v-209q-176 86 -334 86q-97 0 -133.5 -26.5t-36.5 -96.5v-84h191v-174h-199v-885h-233v885h-175zM774 0v1059h234v-1059h-234z" />
<glyph unicode="&#xfb02;" horiz-adv-x="1179" d="M18 885v174h175v88q0 83 26 139q79 176 418 176q204 0 371 -80v-1071q0 -87 17 -121t77 -34q18 0 80 8v-184q-70 -9 -105 -9q-160 0 -231.5 83t-71.5 247v946q-24 15 -72 24t-92 9q-184 0 -184 -143v-78h199v-174h-199v-885h-233v885h-175z" />
</font>
</defs>
</svg>
