<?xml version="1.0" standalone="no"?>
<!DOCTYPE svg PUBLIC "-//W3C//DTD SVG 1.1//EN" "http://www.w3.org/Graphics/SVG/1.1/DTD/svg11.dtd" >
<svg xmlns="http://www.w3.org/2000/svg">
<metadata></metadata>
<defs>
<font id="as_grammatikaregular" horiz-adv-x="1138" >
<font-face units-per-em="2048" ascent="1462" descent="-586" />
<missing-glyph horiz-adv-x="569" />
<glyph horiz-adv-x="2048" />
<glyph horiz-adv-x="2048" />
<glyph unicode="&#xd;" horiz-adv-x="2048" />
<glyph unicode=" "  horiz-adv-x="569" />
<glyph unicode="&#x09;" horiz-adv-x="569" />
<glyph unicode="&#xa0;" horiz-adv-x="569" />
<glyph unicode="!" horiz-adv-x="530" d="M152 0v227h227v-227h-227zM168 1012v450h194v-450l-51 -637h-92z" />
<glyph unicode="&#x22;" horiz-adv-x="872" d="M223 934v528h139v-528h-139zM510 934v528h139v-528h-139z" />
<glyph unicode="#" d="M70 422v139h219l43 307h-209v140h227l60 419h141l-59 -419h253l60 419h141l-59 -419h182v-140h-201l-43 -307h187v-139h-207l-60 -422h-141l60 422h-254l-60 -422h-141l59 422h-198zM430 561h254l43 307h-254z" />
<glyph unicode="$" d="M51 446h174q4 -132 82.5 -214t206.5 -103v543q-114 28 -188.5 58t-129 75.5t-78.5 109t-24 152.5q0 182 119.5 300.5t300.5 129.5v135h113v-137q321 -39 403 -405h-174q-41 202 -229 237v-504l123 -32q37 -10 74.5 -26t84.5 -48t82 -72t59.5 -101.5t24.5 -133.5 q0 -193 -124 -311.5t-324 -133.5v-168h-113v168q-203 20 -324.5 145t-138.5 336zM279 1085q0 -42 12 -75.5t30.5 -56.5t51 -42t64 -31t77.5 -26v479q-105 -11 -170 -74t-65 -174zM627 129q123 10 193.5 73t70.5 189q0 56 -19 98t-58 71t-81.5 47t-105.5 36v-514z" />
<glyph unicode="%" horiz-adv-x="2048" d="M188 1036q0 87 17 158.5t54 131t103.5 93t157.5 33.5q328 0 328 -410q0 -83 -18.5 -154.5t-56 -130.5t-102.5 -92.5t-151 -33.5q-90 0 -156 31.5t-103.5 88.5t-55 127.5t-17.5 157.5zM342 1040q0 -297 172 -297q180 0 180 299q0 297 -174 297q-44 0 -77 -20t-51.5 -49.5 t-30.5 -71.5t-15.5 -79t-3.5 -79zM385 -45l1102 1524h174l-1100 -1524h-176zM1200 381q0 87 17 158.5t54 131t103.5 93t157.5 33.5q328 0 328 -410q0 -83 -18.5 -154.5t-56 -130.5t-102.5 -93t-151 -34q-72 0 -129.5 21t-95 58t-62 89t-35 110.5t-10.5 127.5zM1354 385 q0 -297 172 -297q180 0 180 299q0 297 -174 297q-44 0 -77 -20t-51.5 -49.5t-30.5 -71.5t-15.5 -79t-3.5 -79z" />
<glyph unicode="&#x26;" horiz-adv-x="1290" d="M68 375q0 67 18.5 125t47.5 101t76 84t92.5 70t107.5 62q-13 19 -47 64.5t-47 66.5t-33 58.5t-27.5 74.5t-7.5 80q0 126 89 213.5t241 87.5q69 0 132 -19t113 -55.5t79.5 -94.5t29.5 -130q0 -120 -77 -215t-198 -164l265 -321q41 109 47 227h166q-10 -121 -29.5 -187.5 t-69.5 -172.5l285 -330h-227l-156 182q-64 -99 -176.5 -153t-237.5 -54q-112 0 -198.5 31t-133.5 75t-76.5 102.5t-38.5 103.5t-9 88zM252 377q0 -107 84 -177.5t194 -70.5q97 0 176.5 46t135.5 128l-336 404q-49 -28 -80 -48t-67.5 -51.5t-57.5 -62.5t-35 -74t-14 -94z M422 1153q0 -18 4 -36.5t13.5 -39t17.5 -35.5t25 -38.5t25 -34t29 -37t27 -33.5q40 25 67.5 46t60 53.5t50 71.5t17.5 83q0 65 -46 110.5t-122 45.5q-68 0 -118 -40.5t-50 -115.5z" />
<glyph unicode="'" horiz-adv-x="569" d="M215 934v528h139v-528h-139z" />
<glyph unicode="(" horiz-adv-x="530" d="M96 553q0 242 83.5 489.5t238.5 454.5h133q-142 -224 -206 -455.5t-64 -488.5q0 -265 63.5 -497.5t206.5 -461.5h-133q-159 248 -240.5 476.5t-81.5 482.5z" />
<glyph unicode=")" horiz-adv-x="530" d="M-20 -406q142 224 206 455.5t64 489.5q0 265 -63.5 497t-206.5 461h133q159 -248 240 -475.5t81 -482.5q0 -242 -83 -490t-238 -455h-133z" />
<glyph unicode="*" horiz-adv-x="720" d="M49 1214l37 99l217 -82v231h109v-231l219 82l41 -99l-223 -77l135 -187l-84 -63l-142 196l-133 -196l-92 63l133 187z" />
<glyph unicode="+" horiz-adv-x="1228" d="M98 449v139h447v448h139v-448h446v-139h-446v-449h-139v449h-447z" />
<glyph unicode="," horiz-adv-x="569" d="M170 0v227h227v-207q0 -121 -55.5 -204.5t-169.5 -116.5v102q63 21 93 81t26 118h-121z" />
<glyph unicode="-" horiz-adv-x="796" d="M102 487v164h592v-164h-592z" />
<glyph unicode="." horiz-adv-x="569" d="M170 0v227h227v-227h-227z" />
<glyph unicode="/" horiz-adv-x="681" d="M-37 -35l606 1532h150l-606 -1532h-150z" />
<glyph unicode="0" d="M68 451v522q0 239 130.5 359t370.5 120q232 0 358 -121.5t126 -357.5v-522q0 -237 -125.5 -356.5t-358.5 -119.5q-242 0 -371.5 118t-129.5 358zM254 451q0 -159 82 -240.5t233 -81.5q144 0 220.5 83.5t76.5 238.5v522q0 153 -78.5 240t-218.5 87q-152 0 -233.5 -84 t-81.5 -243v-522z" />
<glyph unicode="1" horiz-adv-x="884" d="M119 1147l282 305h146v-1452h-174v1208l-154 -161z" />
<glyph unicode="2" d="M49 0v154l557 487q34 29 67 64.5t70.5 87.5t60.5 116t23 127q0 116 -81 189t-199 73q-73 0 -130 -31.5t-90 -83.5t-49 -115t-14 -130h-174q-11 226 115 370t352 144q198 0 326.5 -111t128.5 -307q0 -79 -24 -154.5t-68.5 -141.5t-91.5 -118t-109 -108l-410 -358h688v-154 h-948z" />
<glyph unicode="3" d="M61 449h175q5 -146 84.5 -233t224.5 -87q132 0 223.5 76.5t91.5 204.5q0 132 -87 205t-222 73q-55 0 -105 -6v147q27 -2 76 -2q117 0 197 62.5t80 175.5q0 111 -72 172t-186 61q-135 0 -204 -89t-71 -226h-174q8 215 122.5 342t326.5 127q199 0 320.5 -98t121.5 -291 q0 -92 -57 -170.5t-144 -118.5v-4q128 -28 195 -122.5t67 -229.5q0 -141 -69 -243t-180 -151t-250 -49q-224 0 -356 126.5t-128 347.5z" />
<glyph unicode="4" d="M57 340v168l662 944h139v-958h197v-154h-197v-340h-164v340h-637zM207 494h487v710h-4z" />
<glyph unicode="5" d="M63 391h187q13 -129 94 -195.5t219 -66.5q142 0 219.5 84t77.5 238q0 156 -78 243.5t-219 87.5q-90 0 -166 -28t-114 -80h-168v753h850v-153h-684v-412q100 72 282 72q232 0 356.5 -122t124.5 -361q0 -238 -124 -357t-357 -119q-226 0 -355.5 103.5t-144.5 312.5z" />
<glyph unicode="6" d="M78 453v526v4q0 239 125.5 355t361.5 116q198 0 316.5 -94.5t144.5 -276.5h-188q-45 220 -275 220q-145 0 -221 -83t-78 -241l-2 -209q29 80 111 123t207 43q232 0 356.5 -122t124.5 -361q0 -238 -124 -357t-357 -119q-242 0 -372 118t-130 358zM262 453 q0 -159 82.5 -240.5t235.5 -81.5q142 0 219.5 84t77.5 238q0 156 -77.5 243.5t-219.5 87.5q-153 0 -235.5 -85t-82.5 -246z" />
<glyph unicode="7" d="M100 1264v163h940v-149l-622 -1278h-195l639 1264h-762z" />
<glyph unicode="8" d="M82 418q0 129 66.5 224t187.5 138q-91 37 -147 120t-56 181q0 87 35 158.5t94.5 117.5t135.5 70.5t161 24.5q114 0 201.5 -31.5t138 -85.5t75.5 -118t25 -136q0 -96 -55 -178.5t-145 -122.5q258 -82 258 -362q0 -137 -65 -239t-173.5 -153t-243.5 -51q-106 0 -195 28 t-156 82t-104.5 139t-37.5 194zM266 410q0 -129 86 -205t223 -76q130 0 213.5 80.5t83.5 202.5q0 117 -87.5 196.5t-211.5 79.5q-131 0 -219 -77t-88 -201zM317 1075q0 -115 72 -174t186 -59q105 0 172.5 62.5t67.5 170.5q0 106 -67.5 164.5t-176.5 58.5t-181.5 -59 t-72.5 -164z" />
<glyph unicode="9" d="M61 979q0 237 124.5 355t357.5 118q242 0 371.5 -117t129.5 -356v-530q0 -239 -126.5 -356.5t-360.5 -117.5q-197 0 -316 95t-145 276h189q45 -217 272 -217q147 0 223 83t78 241l2 209q-30 -80 -111 -124t-206 -44q-232 0 -357 123t-125 362zM246 979q0 -156 77.5 -244 t219.5 -88q152 0 234.5 86t82.5 246q0 159 -82 240t-235 81q-142 0 -219.5 -83.5t-77.5 -237.5z" />
<glyph unicode=":" horiz-adv-x="569" d="M170 0v227h227v-227h-227zM170 831v228h227v-228h-227z" />
<glyph unicode=";" horiz-adv-x="569" d="M170 0v227h227v-207q0 -121 -55.5 -204.5t-169.5 -116.5v102q63 21 93 81t26 118h-121zM170 831v228h227v-228h-227z" />
<glyph unicode="&#x3c;" horiz-adv-x="1228" d="M94 455v127l1041 471v-140l-871 -395l871 -395v-139z" />
<glyph unicode="=" horiz-adv-x="1228" d="M98 242v139h1032v-139h-1032zM98 655v140h1032v-140h-1032z" />
<glyph unicode="&#x3e;" horiz-adv-x="1228" d="M94 -16v139l871 395l-871 395v140l1041 -471v-127z" />
<glyph unicode="?" d="M113 1006q-2 141 52 252t159.5 175t246.5 64q193 0 313 -109.5t120 -300.5q0 -60 -14 -111.5t-42 -95t-54 -73t-67 -68.5q-87 -83 -116 -123q-62 -84 -62 -180v-80h-174v97q0 46 11 89t25 72t41.5 64.5t44 53t49.5 50.5l13 13q75 75 97 103q70 93 63 206 q-7 112 -73 175.5t-175 63.5q-140 0 -213 -94t-71 -243h-174zM446 0v227h228v-227h-228z" />
<glyph unicode="@" horiz-adv-x="1638" d="M86 737q0 155 60.5 296t163 242.5t243 161.5t293.5 60q189 0 347.5 -80t253.5 -225.5t95 -325.5q0 -103 -31 -198t-82 -165.5t-114 -123.5t-128.5 -80t-123.5 -27q-55 0 -91.5 34.5t-39.5 99.5h-6q-51 -60 -117.5 -99t-136.5 -39q-129 0 -211 93.5t-82 230.5 q0 107 35 211t96.5 186.5t153 133.5t196.5 51q166 0 230 -168l47 129h129l-172 -582q-23 -81 -23 -104q0 -64 49 -64q61 0 127.5 71t111 182.5t44.5 217.5q0 118 -46.5 218.5t-123.5 167.5t-177 104.5t-208 37.5q-129 0 -245 -52.5t-198.5 -141.5t-131 -210t-48.5 -253 q0 -179 86 -328.5t231.5 -235t315.5 -85.5q146 0 283.5 67.5t224.5 180.5h129q-98 -168 -270.5 -264.5t-370.5 -96.5q-159 0 -301.5 60.5t-245 163.5t-162 246t-59.5 302zM532 606q0 -86 50 -142t127 -56q84 0 159.5 74.5t116.5 175t41 186.5q0 74 -51 132t-115 58 q-69 0 -132 -41.5t-105 -105.5t-66.5 -139t-24.5 -142z" />
<glyph unicode="A" horiz-adv-x="1327" d="M-14 0l571 1462h215l571 -1462h-215l-159 440h-619l-164 -440h-200zM412 604h495l-243 682h-5z" />
<glyph unicode="B" horiz-adv-x="1402" d="M160 0v1462h530q91 0 143.5 -1.5t127.5 -14.5t116 -37q77 -46 124.5 -124.5t47.5 -180.5q0 -116 -57.5 -201t-159.5 -127v-4q133 -27 206 -121t73 -231q0 -82 -29 -156.5t-83.5 -134t-140.5 -94.5t-192 -35h-706zM354 164h488q126 0 200 71t74 191q0 69 -26 118t-72 75.5 t-99.5 38.5t-119.5 12h-445v-506zM354 834h389q163 0 237.5 57.5t74.5 175.5q0 59 -17 102t-44 67.5t-69.5 38.5t-84 18.5t-97.5 4.5h-389v-464z" />
<glyph unicode="C" horiz-adv-x="1341" d="M88 528v406q0 285 155 424t445 139q252 0 399.5 -121t172.5 -354h-197q-22 152 -118 231.5t-257 79.5q-194 0 -299.5 -103t-105.5 -296v-406q0 -193 105.5 -296t299.5 -103q185 0 283 103t98 296v23h195v-23q0 -275 -150 -419t-426 -144q-290 0 -445 139t-155 424z" />
<glyph unicode="D" horiz-adv-x="1376" d="M160 0v1462h522q290 0 445 -139t155 -424v-336q0 -285 -155 -424t-445 -139h-522zM354 164h328q194 0 299.5 103t105.5 296v336q0 193 -105.5 296t-299.5 103h-328v-1134z" />
<glyph unicode="E" horiz-adv-x="1251" d="M160 0v1462h1009v-164h-815v-464h760v-164h-760v-506h822v-164h-1016z" />
<glyph unicode="F" horiz-adv-x="1175" d="M160 0v1462h960v-164h-766v-464h672v-164h-672v-670h-194z" />
<glyph unicode="G" horiz-adv-x="1392" d="M86 528v406q0 285 155 424t445 139q255 0 403.5 -124t170.5 -361h-197q-19 157 -115 239t-262 82q-194 0 -299.5 -103t-105.5 -296v-406q0 -193 105.5 -296t299.5 -103q185 0 283 103t98 296v78h-446v164h446h195v-770h-175v172q-56 -95 -167 -151t-234 -56 q-290 0 -445 139t-155 424z" />
<glyph unicode="H" horiz-adv-x="1478" d="M160 0v1462h194v-628h770v628h195v-1462h-195v670h-770v-670h-194z" />
<glyph unicode="I" horiz-adv-x="530" d="M168 0v1462h194v-1462h-194z" />
<glyph unicode="J" horiz-adv-x="1062" d="M45 391v90h195v-61q0 -141 51 -216t184 -75q127 0 180.5 67.5t53.5 196.5v1069h194v-1097q0 -79 -22 -147t-70 -126.5t-135 -92.5t-205 -34q-204 0 -315 110.5t-111 315.5z" />
<glyph unicode="K" horiz-adv-x="1204" d="M162 0v1462h194v-626h222l378 626h215l-419 -696l450 -766h-213l-403 682h-230v-682h-194z" />
<glyph unicode="L" d="M160 0v1462h194v-1298h774v-164h-968z" />
<glyph unicode="M" horiz-adv-x="1783" d="M164 0v1462h270l455 -821l457 821h274v-1462h-184v1237l-453 -797h-186l-449 785v-1225h-184z" />
<glyph unicode="N" horiz-adv-x="1478" d="M158 0v1462h207l770 -1186h4v1186h184v-1462h-213l-764 1174h-4v-1174h-184z" />
<glyph unicode="O" horiz-adv-x="1331" d="M78 528v406q0 285 155 424t445 139q276 0 425.5 -144t149.5 -419v-406q0 -275 -149.5 -419t-425.5 -144q-290 0 -445 139t-155 424zM272 528q0 -193 106 -296t300 -103q185 0 283 103t98 296v406q0 193 -98 296t-283 103q-194 0 -300 -103t-106 -296v-406z" />
<glyph unicode="P" horiz-adv-x="1327" d="M160 0v1462h641q216 0 332 -114t116 -318t-116 -318t-332 -114h-447v-598h-194zM354 762h381q320 0 320 268t-320 268h-381v-536z" />
<glyph unicode="Q" horiz-adv-x="1329" d="M78 530v406q0 285 155 424t445 139q276 0 425.5 -144t149.5 -419v-406q0 -281 -157 -426l129 -106l-99 -123l-172 141q-119 -49 -276 -49q-290 0 -445 139t-155 424zM272 530q0 -193 106 -296t300 -103q88 0 125 8l-135 109l102 119l188 -150q101 95 101 313v406 q0 193 -98 296t-283 103q-194 0 -300 -103t-106 -296v-406z" />
<glyph unicode="R" horiz-adv-x="1402" d="M160 0v1462h641q216 0 332 -114t116 -318q0 -154 -66.5 -258t-193.5 -145l289 -627h-203l-276 598h-445v-598h-194zM354 762h381q320 0 320 268t-320 268h-381v-536z" />
<glyph unicode="S" horiz-adv-x="1327" d="M76 481h184q0 -89 35 -158t95.5 -110.5t135.5 -62.5t160 -21q72 0 133.5 12.5t117 41t88 82.5t32.5 130q0 131 -141 197q-76 36 -268 78q-43 9 -58 12q-59 13 -100.5 23.5t-94 28.5t-88.5 37.5t-74 49t-60.5 64t-37 81.5t-14.5 103q0 107 45 191.5t121 134.5t168.5 76 t195.5 26q91 0 170 -17t145.5 -53.5t114.5 -90.5t76.5 -130.5t32.5 -171.5h-184q-17 152 -112 225.5t-251 73.5q-65 0 -121 -13t-104 -40.5t-75.5 -78t-27.5 -118.5q0 -27 7.5 -50t18.5 -41t31.5 -34.5t39 -28.5t50 -24t55 -19.5t62.5 -17t65 -15t70 -15t70 -15.5 q81 -18 139.5 -36.5t124.5 -52.5t107 -76t68.5 -108t27.5 -149q0 -90 -34 -164.5t-90 -124t-131 -83.5t-154.5 -49t-161.5 -15q-126 0 -233.5 31t-191 92.5t-131.5 162t-48 230.5z" />
<glyph unicode="T" horiz-adv-x="1175" d="M4 1298v164h1170v-164h-488v-1298h-194v1298h-488z" />
<glyph unicode="U" horiz-adv-x="1478" d="M152 528v934h194v-934q0 -193 106 -296t300 -103q185 0 283 103t98 296v934h194v-934q0 -275 -149.5 -419t-425.5 -144q-290 0 -445 139t-155 424z" />
<glyph unicode="V" horiz-adv-x="1251" d="M-2 1462h211l418 -1267h4l422 1267h202l-520 -1462h-221z" />
<glyph unicode="W" horiz-adv-x="1896" d="M25 1462h198l287 -1216h4l328 1216h211l323 -1216h4l297 1216h195l-391 -1462h-203l-334 1229h-4l-338 -1229h-203z" />
<glyph unicode="X" horiz-adv-x="1251" d="M-2 0l510 752l-481 710h233l365 -571l381 571h217l-484 -710l514 -752h-237l-393 604l-406 -604h-219z" />
<glyph unicode="Y" horiz-adv-x="1327" d="M4 1462h232l438 -696l428 696h221l-559 -864v-598h-195v598z" />
<glyph unicode="Z" horiz-adv-x="1251" d="M45 0v164l909 1134h-839v164h1069v-164l-908 -1134h932v-164h-1163z" />
<glyph unicode="[" horiz-adv-x="530" d="M147 -406v1903h383v-139h-219v-1624h219v-140h-383z" />
<glyph unicode="\" horiz-adv-x="681" d="M-37 1497h150l606 -1532h-150z" />
<glyph unicode="]" horiz-adv-x="530" d="M0 -266h219v1624h-219v139h383v-1903h-383v140z" />
<glyph unicode="^" horiz-adv-x="1228" d="M102 541l447 886h131l446 -886h-143l-371 737l-364 -737h-146z" />
<glyph unicode="_" horiz-adv-x="1024" d="M0 -154h1024v-102h-1024v102z" />
<glyph unicode="`" horiz-adv-x="454" d="M-47 1497h223l176 -293h-131z" />
<glyph unicode="a" horiz-adv-x="1095" d="M76 289q0 86 40.5 153t102 105.5t145 63.5t159 33.5t155.5 8.5h110v101q0 44 -14 76.5t-36 51t-54.5 30t-63 15t-67.5 3.5q-264 0 -264 -201v-10h-174v10q0 76 24 137t65.5 101t99 66.5t122 38t137.5 11.5q63 0 115 -6t106.5 -25t91.5 -49.5t61 -84t24 -125.5v-791h-164 v137q-139 -164 -373 -164q-157 0 -252.5 75.5t-95.5 238.5zM258 285q0 -80 58.5 -118t146.5 -38q81 0 146 23.5t101.5 61t55.5 77.5t20 78l2 131h-143q-178 0 -282.5 -57t-104.5 -158z" />
<glyph unicode="b" horiz-adv-x="1107" d="M137 0v231v1231h174v-510q99 135 297 135q79 0 143.5 -16.5t108 -43.5t76 -65t51 -75.5t29.5 -82t14.5 -78.5t3.5 -69v-249q0 -51 -8.5 -101.5t-36.5 -113t-72 -108.5t-124 -78t-185 -32q-198 0 -297 129v-104h-174zM305 408q0 -137 68 -208t200 -71q138 0 211.5 72 t73.5 207v249q0 134 -73.5 205.5t-211.5 71.5q-132 0 -200 -71t-68 -206v-249z" />
<glyph unicode="c" horiz-adv-x="1032" d="M74 406v249q0 36 3.5 69.5t15 78t31 82t54.5 76t81.5 65t116 43t154.5 16.5q100 0 177.5 -26t123 -63.5t76.5 -90.5t43 -96.5t17 -91.5h-179q-14 106 -79 160.5t-179 54.5q-136 0 -208 -71.5t-72 -205.5v-249q0 -135 72 -207t208 -72q124 0 191 66t72 192h176 q-1 -31 -5 -61t-16 -73t-30.5 -79.5t-52 -74t-78 -64t-110.5 -43.5t-147 -17q-85 0 -154.5 16.5t-116 43.5t-81.5 65.5t-54.5 76t-31 82.5t-15 79t-3.5 70z" />
<glyph unicode="d" horiz-adv-x="1105" d="M74 408v249q0 35 3.5 69t14.5 78.5t29.5 82t51 75.5t76 65t108 43.5t143.5 16.5q200 0 295 -135v510h174v-1231v-231h-174v104q-96 -129 -295 -129q-105 0 -185 32t-124 78t-72 108.5t-36.5 113t-8.5 101.5zM250 408q0 -135 73.5 -207t211.5 -72q132 0 200 71t68 208v249 q0 135 -68 206t-200 71q-138 0 -211.5 -71.5t-73.5 -205.5v-249z" />
<glyph unicode="e" horiz-adv-x="1040" d="M74 408v249q0 36 3.5 69.5t15 78t31 82t54.5 76t81.5 65t116 43t154.5 16.5t154.5 -18.5t114.5 -47.5t78.5 -70.5t50.5 -79.5t27.5 -83t13 -73.5t2.5 -57.5v-180h-721v-69q0 -135 72.5 -207t207.5 -72q227 0 258 207h179q-6 -47 -18.5 -90t-43.5 -94.5t-76.5 -89 t-123 -62.5t-175.5 -25q-85 0 -154.5 16.5t-116 43.5t-81.5 65.5t-54.5 76t-31 82.5t-15 79t-3.5 70zM250 631h545v26q0 135 -68 206t-197 71q-135 0 -207.5 -71.5t-72.5 -205.5v-26z" />
<glyph unicode="f" horiz-adv-x="606" d="M25 905v154h178v158q0 129 75 195.5t218 66.5q56 0 112 -17v-151q-43 14 -98 14q-67 0 -100 -26.5t-33 -92.5v-147h205v-154h-205v-905h-174v905h-178z" />
<glyph unicode="g" horiz-adv-x="1210" d="M37 -154q0 46 19.5 87.5t47.5 67.5t56 45.5t48 27.5l19 8q-4 1 -10 4t-21.5 14t-27.5 25t-21.5 38.5t-9.5 53.5q0 86 125 164q-135 106 -135 305q0 189 120.5 293t307.5 104q196 0 313 -108q103 108 275 108h18v-184q-127 0 -209 -43q33 -81 33 -170q0 -126 -57.5 -217.5 t-153.5 -135.5t-219 -44q-117 0 -213 41q-41 -25 -41 -70q0 -36 42.5 -55.5t110.5 -27t150.5 -13.5t165 -20.5t150.5 -40.5t110.5 -81.5t42.5 -136.5q0 -159 -134.5 -237t-389.5 -78q-236 0 -374 75.5t-138 200.5zM225 -127q0 -54 49 -88.5t119.5 -47.5t161.5 -13 q66 0 124 8.5t106.5 26t77 49t28.5 73.5t-49 71.5t-131.5 44.5t-168.5 21.5t-182 6.5q-5 -2 -14.5 -5t-32.5 -16t-41 -28.5t-32.5 -43t-14.5 -59.5zM307 682q0 -110 66 -183t182 -73t182 73t66 183q0 109 -66 181.5t-182 72.5t-182 -72.5t-66 -181.5z" />
<glyph unicode="h" d="M131 0v1462h174v-559h4q40 89 134.5 134.5t199.5 45.5q102 0 174.5 -28t113.5 -81t59 -121t18 -157v-696h-174v717q0 97 -58.5 155t-157.5 58q-153 0 -233 -91.5t-80 -240.5v-598h-174z" />
<glyph unicode="i" horiz-adv-x="454" d="M141 0v1059h174v-1059h-174zM141 1249v213h174v-213h-174z" />
<glyph unicode="j" horiz-adv-x="454" d="M-29 -248q25 -4 72 -4q56 0 77 31.5t21 114.5v1165h174v-1194q0 -137 -67 -204t-187 -67q-43 0 -90 9v149zM141 1249v213h174v-213h-174z" />
<glyph unicode="k" horiz-adv-x="1034" d="M141 0v1462h174v-809h144l305 406h207l-359 -469l383 -590h-200l-324 500h-156v-500h-174z" />
<glyph unicode="l" horiz-adv-x="483" d="M141 246v1216h174v-1188q0 -82 21 -113.5t78 -31.5q46 0 71 4v-149q-47 -9 -90 -9q-120 0 -187 67t-67 204z" />
<glyph unicode="m" horiz-adv-x="1746" d="M131 0v1059h164v-156h4q118 180 342 180q104 0 182 -44t109 -136q54 85 142 132.5t190 47.5q166 0 259 -74.5t93 -232.5v-776h-174v694q0 53 -8.5 92.5t-30 74t-63 52t-103.5 17.5q-126 0 -201 -74t-75 -197v-659h-175v694q0 113 -44 174.5t-154 61.5q-59 0 -108.5 -20.5 t-81 -51.5t-53.5 -69t-31 -71t-9 -59v-659h-174z" />
<glyph unicode="n" d="M131 0v1059h164v-168h4q108 192 344 192q102 0 174.5 -28t113.5 -81t59 -121t18 -157v-696h-174v717q0 97 -58.5 155t-157.5 58q-153 0 -233 -91.5t-80 -240.5v-598h-174z" />
<glyph unicode="o" horiz-adv-x="1050" d="M74 408v249q0 36 3.5 69.5t15 78t31 82t54.5 76t82 65t116.5 43t155.5 16.5q85 0 154 -18.5t113.5 -47.5t78 -70.5t50.5 -79.5t27.5 -83t13 -73.5t2.5 -57.5v-249q0 -29 -2.5 -58t-13 -74t-27.5 -83.5t-50.5 -80t-78 -70.5t-113.5 -48t-154 -19q-86 0 -155.5 16.5 t-116.5 43.5t-82 65.5t-54.5 76t-31 82.5t-15 79t-3.5 70zM250 408q0 -135 73 -207t209 -72q129 0 196 71t67 208v249q0 135 -67 206t-196 71q-136 0 -209 -71.5t-73 -205.5v-249z" />
<glyph unicode="p" horiz-adv-x="1114" d="M137 -403v1462h174v-103q98 127 295 127q105 0 185.5 -31.5t125 -77.5t72.5 -108t36.5 -112t8.5 -101v-250q0 -52 -7 -100.5t-34 -111.5t-70.5 -108.5t-125.5 -77.5t-191 -32q-199 0 -295 136v-512h-174zM305 403q0 -135 68 -205.5t200 -70.5q137 0 211 71.5t74 204.5 v250q0 134 -74 205.5t-211 71.5q-132 0 -200 -70.5t-68 -206.5v-250z" />
<glyph unicode="q" horiz-adv-x="1101" d="M72 406v249q0 51 8.5 101.5t36.5 112t72 107.5t124 77.5t185 31.5q201 0 295 -127v103h174v-230v-1232h-174v512q-96 -136 -295 -136q-79 0 -143.5 16.5t-108 43.5t-76 65t-51 76t-29.5 82.5t-14.5 78.5t-3.5 69zM248 406q0 -134 73 -205.5t211 -71.5q130 0 198.5 71 t68.5 206v249q0 136 -68 206.5t-199 70.5q-138 0 -211 -71t-73 -206v-249z" />
<glyph unicode="r" horiz-adv-x="681" d="M125 0v1059h164v-223h4q64 130 157 190q87 57 215 57h17v-184q-203 0 -293 -109t-90 -319v-471h-174z" />
<glyph unicode="s" horiz-adv-x="1024" d="M63 334h175q2 -56 26 -97.5t65 -64t88.5 -33t104.5 -10.5q47 0 87 6.5t81 22.5t64.5 49t23.5 80q0 20 -5.5 37.5t-13.5 31t-23.5 26t-28.5 21.5t-37 18t-40.5 15t-46.5 13.5t-47.5 11t-52 11t-51.5 11.5q-60 14 -103 27t-92 37t-79.5 53.5t-51 76t-20.5 105.5 q0 76 35.5 136t93.5 95t126 52.5t140 17.5q92 0 165 -16t133.5 -52.5t95.5 -102.5t40 -160h-174q-6 64 -44 105.5t-88.5 57t-112.5 15.5q-42 0 -79.5 -6.5t-72 -21t-54.5 -42t-20 -65.5q0 -20 6 -37.5t19.5 -32t27.5 -25.5t38.5 -21.5t43 -17.5t50 -14.5t52 -12.5 t55.5 -12.5t54 -11.5q62 -15 104 -27.5t92 -37t80 -54t50.5 -76.5t20.5 -106q0 -90 -39.5 -157.5t-106.5 -104.5t-143 -54.5t-162 -17.5q-93 0 -170 20t-139.5 61t-99 112t-40.5 166z" />
<glyph unicode="t" horiz-adv-x="645" d="M18 905v154h181v317h174v-317h211v-154h-211v-657q0 -60 24.5 -77t106.5 -17h80v-154h-133q-72 0 -116 8.5t-76.5 33.5t-46 70.5t-13.5 118.5v674h-181z" />
<glyph unicode="u" d="M131 362v697h174v-717q0 -97 58 -155t157 -58q153 0 233.5 91.5t80.5 240.5v598h174v-1059h-164v168h-4q-109 -193 -344 -193q-102 0 -174.5 28t-113.5 81t-59 121t-18 157z" />
<glyph unicode="v" horiz-adv-x="1024" d="M29 1059h194l297 -883h4l289 883h182l-387 -1059h-186z" />
<glyph unicode="w" horiz-adv-x="1552" d="M35 1059h192l240 -866h4l213 866h190l222 -866h4l237 866h181l-338 -1059h-185l-215 842h-4l-213 -842h-188z" />
<glyph unicode="x" horiz-adv-x="1060" d="M18 0l398 557l-369 502h223l254 -371l264 371h209l-364 -488l409 -571h-223l-295 438l-295 -438h-211z" />
<glyph unicode="y" horiz-adv-x="1024" d="M16 1059h197l309 -866h4l297 866h185l-562 -1465h-174l164 412z" />
<glyph unicode="z" horiz-adv-x="983" d="M45 0v133l639 772h-598v154h823v-119l-647 -786h676v-154h-893z" />
<glyph unicode="{" horiz-adv-x="681" d="M98 475v139q67 0 118.5 69t51.5 173v373q0 122 68.5 195t152.5 73h144v-123h-103q-98 0 -98 -176v-375q0 -67 -20.5 -121.5t-51.5 -84.5t-57.5 -46t-48.5 -22v-6q17 -2 37 -10.5t46 -29t46.5 -49.5t34.5 -78t14 -108v-374q0 -177 98 -177h103v-123h-144 q-84 0 -152.5 73.5t-68.5 195.5v373q0 108 -51 173.5t-119 65.5z" />
<glyph unicode="|" horiz-adv-x="454" d="M158 -438v2048h139v-2048h-139z" />
<glyph unicode="}" horiz-adv-x="681" d="M49 -283h103q98 0 98 177v374q0 67 20.5 121.5t51.5 85t57.5 46.5t48.5 22v6q-22 3 -48.5 17t-57.5 43t-51.5 85t-20.5 129v371q0 180 -98 180h-103v123h144q84 0 152.5 -73t68.5 -195v-373q0 -108 51 -175t119 -67v-139q-67 0 -118.5 -67.5t-51.5 -171.5v-373 q0 -122 -68.5 -195.5t-152.5 -73.5h-144v123z" />
<glyph unicode="~" horiz-adv-x="1228" d="M141 469q92 176 256 176q83 0 228 -65q20 -9 70.5 -34t82 -36.5t56.5 -11.5q29 0 54.5 12t50.5 41t37 45.5t38 56.5l73 -102q-23 -32 -38.5 -52t-41 -46.5t-49.5 -41t-57 -25.5t-70 -11q-85 0 -208 67q-46 26 -72 39t-73 27t-91 14q-60 0 -100 -43t-72 -112z" />
<glyph unicode="&#xa1;" horiz-adv-x="530" d="M152 831v228h227v-228h-227zM168 45l51 637h92l51 -637v-451h-194v451z" />
<glyph unicode="&#xa2;" d="M145 408v249q0 34 3 66.5t14 75t28.5 79t49 74t73.5 65t104.5 46t139.5 22.5v193h80v-191q91 -5 162 -32.5t112.5 -65t70 -88.5t40 -93.5t16.5 -88.5h-178q-24 198 -223 213v-801q107 9 164.5 74t62.5 182h176q-1 -30 -4.5 -59t-14.5 -70.5t-28.5 -76.5t-48.5 -72.5 t-71.5 -64.5t-101 -46t-134.5 -23v-213h-80v215q-77 4 -139.5 23t-104.5 46.5t-73.5 65t-49 74.5t-28.5 80t-14 75.5t-3 66.5zM322 408q0 -123 60 -194t175 -83v801q-115 -10 -175 -81t-60 -194v-249z" />
<glyph unicode="&#xa3;" d="M96 113q97 65 161.5 160t64.5 206q0 81 -52 191h-174v92h119q-96 161 -96 319q0 126 65 222t170.5 145t231.5 49q230 0 358.5 -135t124.5 -393h-174q-5 181 -79.5 277.5t-219.5 96.5q-123 0 -208 -77t-85 -191q0 -48 11.5 -94.5t23 -73t37.5 -76t35 -69.5h325v-92h-280 q41 -77 41 -154q0 -66 -18 -121.5t-56.5 -104.5t-72.5 -80.5t-91 -78.5l4 -4q46 20 71 30t65.5 19.5t78.5 9.5q77 0 195 -30q6 -2 39 -12t46 -13t39 -7.5t48 -4.5q87 0 182 76l88 -136q-110 -94 -299 -94q-78 0 -203 41q-5 1 -25 7t-26.5 8t-25 7t-27.5 7t-26 5.5t-28.5 5 t-27 2.5t-29.5 1q-99 0 -204 -72z" />
<glyph unicode="&#xa4;" d="M51 297l113 119q-107 129 -107 299q0 88 28 168t83 135l-117 119l101 100l114 -115q58 49 140.5 77t168.5 28q81 0 159 -27.5t134 -75.5l117 115l102 -104l-112 -113q51 -56 78.5 -136t27.5 -167q0 -180 -106 -307l112 -115l-96 -96l-114 118q-57 -54 -137 -83t-167 -29 q-189 0 -311 110l-112 -118zM231 715q0 -149 99.5 -252t242.5 -103q141 0 237.5 105t96.5 254q0 146 -96 250t-236 104q-146 0 -245 -103.5t-99 -254.5z" />
<glyph unicode="&#xa5;" d="M0 1462h223l357 -723l346 723h213l-365 -706h191v-123h-258l-37 -68v-86h295v-123h-295v-356h-195v356h-289v123h289v86l-37 68h-252v123h189z" />
<glyph unicode="&#xa6;" horiz-adv-x="454" d="M158 -182v512h139v-512h-139zM158 842v512h139v-512h-139z" />
<glyph unicode="&#xa7;" d="M72 666q0 95 64 176t155 106q-94 97 -94 217q0 102 55.5 179.5t140.5 115t182 37.5q172 0 272.5 -96t104.5 -283h-174q-2 97 -57.5 161t-149.5 64q-86 0 -140 -45t-54 -131q0 -35 17 -68t42.5 -58.5t68 -54t80.5 -49.5t92 -50q27 -14 40 -21q61 -33 102 -58t90 -63.5 t78.5 -76.5t49.5 -89.5t20 -109.5q0 -99 -60 -182t-153 -119q121 -90 121 -246q0 -148 -107.5 -238t-275.5 -90q-181 0 -290.5 103.5t-121.5 284.5h174q2 -105 66 -169.5t168 -64.5q82 0 144 44.5t62 125.5q0 23 -5.5 44.5t-19.5 42.5t-26.5 37t-38.5 36.5t-42.5 32.5 t-52 32.5t-53 30.5t-60 32.5t-58.5 31.5q-63 34 -105.5 60t-94 67.5t-82.5 82t-52.5 97.5t-21.5 121zM240 674q0 -37 14 -70.5t31.5 -56.5t51 -48.5t55.5 -38.5t63 -36q195 -108 286 -170q65 27 106.5 76t41.5 114q0 32 -13.5 62.5t-33 53t-49.5 46.5t-53.5 39t-55.5 34 q-4 2 -6.5 3.5t-5.5 3.5q-241 146 -283 174q-62 -21 -105.5 -72.5t-43.5 -113.5z" />
<glyph unicode="&#xa8;" horiz-adv-x="454" d="M-57 1212v213h184v-213h-184zM328 1212v213h184v-213h-184z" />
<glyph unicode="&#xa9;" horiz-adv-x="1638" d="M47 735q0 211 105 387t282 275.5t385 99.5q207 0 383 -99.5t280.5 -275.5t104.5 -387q0 -162 -61.5 -305.5t-165.5 -245t-245 -160.5t-296 -59q-156 0 -297.5 59t-246 160.5t-166.5 245t-62 305.5zM186 735q0 -185 83 -335.5t228 -236t322 -85.5q175 0 319 85.5 t227 236.5t83 335q0 180 -83 329t-227.5 234.5t-318.5 85.5q-176 0 -321.5 -85.5t-228.5 -234.5t-83 -329zM438 625v213q0 30 3 58.5t13 66t26.5 69t46.5 63.5t69 54.5t98 36.5t131 14q84 0 150 -21.5t104 -53.5t64.5 -76t36.5 -81t14 -77h-150q-12 88 -68 134t-151 46 q-115 0 -176 -60t-61 -173v-213q0 -113 61 -173.5t176 -60.5q106 0 162.5 56t59.5 163h149q-1 -26 -4 -52t-13 -61.5t-26 -66.5t-44.5 -63t-66 -54.5t-93.5 -36.5t-124 -14q-72 0 -131 14t-98 36.5t-69 54.5t-46.5 64t-26.5 69.5t-13 66t-3 58.5z" />
<glyph unicode="&#xaa;" horiz-adv-x="727" d="M53 973q0 63 34.5 110t92 71.5t119 36t127.5 11.5h61v55q0 101 -137 101q-153 0 -153 -123h-119q0 58 22 102.5t52.5 68t71.5 38t71.5 18.5t60.5 4q102 0 168 -34q82 -46 82 -150v-489h-114v73q-84 -90 -220 -90q-23 0 -47 3.5t-56.5 15.5t-57 32t-41.5 58t-17 88z M178 973q0 -28 12.5 -47t33.5 -27t38 -11t35 -3q92 0 145 49q43 40 43 90l2 72h-79q-106 0 -168 -33t-62 -90z" />
<glyph unicode="&#xab;" horiz-adv-x="948" d="M102 479v180l312 246v-176l-205 -160l205 -159v-177zM504 479v180l311 246v-176l-205 -160l205 -159v-177z" />
<glyph unicode="&#xac;" horiz-adv-x="1228" d="M98 655v140h1032v-572h-139v432h-893z" />
<glyph unicode="&#xad;" horiz-adv-x="796" d="M102 487v164h592v-164h-592z" />
<glyph unicode="&#xae;" horiz-adv-x="1638" d="M49 735q0 211 105 387t282 275.5t385 99.5q207 0 383 -99.5t280.5 -275.5t104.5 -387q0 -162 -61.5 -305.5t-165.5 -245t-245 -160.5t-296 -59q-156 0 -297.5 59t-246 160.5t-166.5 245t-62 305.5zM188 735q0 -185 83 -335.5t228 -236t322 -85.5q175 0 319 85.5 t227 236.5t83 335q0 181 -83 330t-227.5 234t-318.5 85q-132 0 -249.5 -50t-201.5 -136.5t-133 -207t-49 -255.5zM512 295v895h393q135 0 207 -72q72 -69 72 -196q0 -92 -39 -156.5t-113 -93.5l176 -377h-145l-166 358h-248v-358h-137zM649 770h217h4q179 0 179 152 q0 149 -183 149h-217v-301z" />
<glyph unicode="&#xaf;" horiz-adv-x="454" d="M-121 1270v112h699v-112h-699z" />
<glyph unicode="&#xb0;" horiz-adv-x="819" d="M115 1157q0 123 86 209t209 86t209 -86t86 -209t-86 -209t-209 -86t-209 86t-86 209zM217 1157q0 -76 53 -134t140 -58t139.5 57.5t52.5 134.5t-52.5 135t-139.5 58t-140 -58t-53 -135z" />
<glyph unicode="&#xb1;" horiz-adv-x="1228" d="M98 0v139h1032v-139h-1032zM98 555v139h447v340h139v-340h446v-139h-446v-342h-139v342h-447z" />
<glyph unicode="&#xb2;" horiz-adv-x="681" d="M27 573v115q307 230 366 275q39 29 66 54t53.5 76t26.5 109q0 67 -52.5 102t-132.5 35q-95 0 -142 -56t-44 -140h-113q-8 136 74.5 222.5t230.5 86.5q131 0 215 -66.5t84 -185.5q0 -176 -192 -315l-268 -197h450v-115h-622z" />
<glyph unicode="&#xb3;" horiz-adv-x="681" d="M8 848h139q1 -85 50.5 -130.5t138.5 -45.5q80 0 136 40t56 107q0 80 -55 119t-135 39h-68v102h49q74 0 122 32.5t48 100.5q0 60 -43.5 93.5t-113.5 33.5q-80 0 -122 -48.5t-42 -127.5h-139q8 133 88 211t215 78q132 0 214.5 -62t82.5 -178q0 -56 -40 -102.5t-100 -71.5 v-4q87 -17 133 -73t46 -136q0 -86 -48.5 -148t-122 -90t-161.5 -28q-143 0 -235.5 76t-92.5 213z" />
<glyph unicode="&#xb4;" horiz-adv-x="454" d="M102 1204l177 293h223l-269 -293h-131z" />
<glyph unicode="&#xb5;" d="M131 -406v1465h174v-717q0 -97 58 -155t157 -58q153 0 233.5 91.5t80.5 240.5v598h174v-1059h-164v168h-4q-109 -193 -344 -193q-137 0 -187 78h-4v-459h-174z" />
<glyph unicode="&#xb6;" horiz-adv-x="1228" d="M98 1040q0 198 125 310t342 112h490v-1779h-140v1667h-249v-1667h-140v976q-186 0 -307 110t-121 271z" />
<glyph unicode="&#xb7;" horiz-adv-x="569" d="M154 637q0 54 39 92.5t92 38.5t92 -39t39 -92q0 -50 -39.5 -90.5t-89.5 -40.5q-54 0 -93.5 39t-39.5 92z" />
<glyph unicode="&#xb8;" horiz-adv-x="454" d="M10 -391l37 90q74 -27 125 -27q49 0 88 16t39 48q0 27 -28 45t-68 18q-34 0 -84 -16l-35 57l125 160h86l-86 -109l4 -4q23 15 68 15q70 0 121 -39.5t51 -110.5q0 -49 -23.5 -86t-62 -57t-81 -29.5t-87.5 -9.5q-86 0 -189 39z" />
<glyph unicode="&#xb9;" horiz-adv-x="649" d="M129 1212l221 240h115v-879h-137v687l-121 -127z" />
<glyph unicode="&#xba;" horiz-adv-x="786" d="M51 1112q0 148 90 244t252 96t252 -95t90 -245q0 -152 -88.5 -243t-251.5 -91q-160 0 -252 92.5t-92 241.5zM190 1112q0 -101 50.5 -166t154.5 -65q102 0 151.5 64t49.5 165q0 57 -13 101t-33 69.5t-48 42t-54 22t-55 5.5q-89 0 -146 -60.5t-57 -177.5z" />
<glyph unicode="&#xbb;" horiz-adv-x="948" d="M133 233v177l205 159l-205 160v176l311 -246v-180zM535 233v177l204 159l-204 160v176l311 -246v-180z" />
<glyph unicode="&#xbc;" horiz-adv-x="1708" d="M115 1210l223 240h115v-879h-138v689l-120 -130zM309 -55l891 1542h131l-891 -1542h-131zM948 199v118l430 564h105v-570h123v-112h-123v-197h-127v197h-408zM1049 311h307v396h-4z" />
<glyph unicode="&#xbd;" horiz-adv-x="1708" d="M111 1212l223 240h115v-879h-138v689l-121 -129zM276 -57l891 1542h131l-890 -1542h-132zM1010 0v115q307 229 366 274q28 20 48.5 39t45.5 49t38.5 69t13.5 83q0 67 -52.5 102t-132.5 35q-95 0 -142 -56.5t-44 -140.5h-113q-8 136 74.5 223t230.5 87q131 0 215 -66.5 t84 -185.5q0 -177 -192 -316l-268 -196h450v-115h-622z" />
<glyph unicode="&#xbe;" horiz-adv-x="1708" d="M100 848h140q2 -85 50.5 -130.5t137.5 -45.5q80 0 136.5 40t56.5 107q0 80 -55.5 119t-135.5 39h-68v102h50q74 0 122 32.5t48 100.5q0 60 -44 93.5t-114 33.5q-80 0 -122 -48.5t-42 -127.5h-139q8 133 88 211t215 78q132 0 214.5 -62t82.5 -178q0 -56 -39.5 -102.5 t-99.5 -71.5v-4q87 -17 132.5 -73t45.5 -136q0 -86 -48.5 -148t-122 -90t-161.5 -28q-143 0 -235.5 76t-92.5 213zM440 -57l891 1542h131l-891 -1542h-131zM981 197v118l430 564h105v-570h122v-112h-122v-197h-127v197h-408zM1083 301h308v395h-5z" />
<glyph unicode="&#xbf;" d="M139 -20q0 60 13.5 111.5t41.5 95t54 73t67 68.5q86 82 115 120q64 85 64 183v63h174v-80q0 -46 -11.5 -88.5t-25 -71.5t-41 -65t-44 -53t-49.5 -50l-14 -14q-75 -75 -98 -105q-68 -92 -61 -204t72.5 -175.5t174.5 -63.5q140 0 213.5 94.5t71.5 242.5h174 q3 -215 -122 -353t-337 -138q-193 0 -312.5 109.5t-119.5 300.5zM463 831v228h227v-228h-227z" />
<glyph unicode="&#xc0;" horiz-adv-x="1327" d="M-14 0l571 1462h215l571 -1462h-215l-159 440h-619l-164 -440h-200zM389 1860h223l176 -293h-131zM412 604h495l-243 682h-5z" />
<glyph unicode="&#xc1;" horiz-adv-x="1327" d="M-14 0l571 1462h215l571 -1462h-215l-159 440h-619l-164 -440h-200zM412 604h495l-243 682h-5zM539 1567l176 293h223l-268 -293h-131z" />
<glyph unicode="&#xc2;" horiz-adv-x="1327" d="M-14 0l571 1462h215l571 -1462h-215l-159 440h-619l-164 -440h-200zM356 1567l211 293h191l213 -293h-172l-142 196l-143 -196h-158zM412 604h495l-243 682h-5z" />
<glyph unicode="&#xc3;" horiz-adv-x="1327" d="M-14 0l571 1462h215l571 -1462h-215l-159 440h-619l-164 -440h-200zM317 1585q29 105 77.5 165t137.5 60q56 0 152 -41q94 -40 135 -40q36 0 59.5 26.5t34.5 63.5h107q-12 -89 -64 -164q-57 -64 -161 -64q-36 0 -136 41q-106 39 -137 39q-37 0 -69 -25t-29 -61h-107z M412 604h495l-243 682h-5z" />
<glyph unicode="&#xc4;" horiz-adv-x="1327" d="M-14 0l571 1462h215l571 -1462h-215l-159 440h-619l-164 -440h-200zM379 1575v213h184v-213h-184zM412 604h495l-243 682h-5zM764 1575v213h184v-213h-184z" />
<glyph unicode="&#xc5;" horiz-adv-x="1327" d="M-14 0l571 1462h215l571 -1462h-215l-159 440h-619l-164 -440h-200zM412 604h495l-243 682h-5zM432 1718q0 95 68.5 163.5t163.5 68.5t163 -68.5t68 -163.5t-68 -163t-163 -68t-163.5 68t-68.5 163zM524 1718q0 -58 40.5 -98.5t99.5 -40.5q58 0 98.5 40.5t40.5 98.5 q0 59 -40.5 99.5t-98.5 40.5t-99 -41t-41 -99z" />
<glyph unicode="&#xc6;" horiz-adv-x="1896" d="M-14 0l739 1462h1096v-164h-719v-464h676v-164h-676v-506h731v-164h-915v426h-504l-209 -426h-219zM489 590h429v708h-84z" />
<glyph unicode="&#xc7;" horiz-adv-x="1353" d="M86 526v406q0 285 155 424t445 139q252 0 399 -121.5t172 -353.5h-196q-22 152 -118 231.5t-257 79.5q-194 0 -299.5 -103t-105.5 -296v-406q0 -193 105.5 -296t299.5 -103q185 0 283 103t98 296v23h195v-23q0 -267 -142 -411t-403 -152l-60 -76l5 -4q22 15 67 15 q70 0 121 -39.5t51 -110.5q0 -49 -23.5 -86t-62 -57t-81 -29.5t-87.5 -9.5q-85 0 -188 39l37 90q74 -27 125 -27q49 0 88 16t39 48q0 27 -28.5 45t-68.5 18q-34 0 -84 -16l-35 57l99 129q-264 12 -404.5 150.5t-140.5 410.5z" />
<glyph unicode="&#xc8;" horiz-adv-x="1251" d="M160 0v1462h1009v-164h-815v-464h760v-164h-760v-506h822v-164h-1016zM352 1860h223l177 -293h-131z" />
<glyph unicode="&#xc9;" horiz-adv-x="1251" d="M160 0v1462h1009v-164h-815v-464h760v-164h-760v-506h822v-164h-1016zM502 1567l176 293h223l-268 -293h-131z" />
<glyph unicode="&#xca;" horiz-adv-x="1251" d="M160 0v1462h1009v-164h-815v-464h760v-164h-760v-506h822v-164h-1016zM319 1567l211 293h191l213 -293h-172l-141 196l-144 -196h-158z" />
<glyph unicode="&#xcb;" horiz-adv-x="1251" d="M160 0v1462h1009v-164h-815v-464h760v-164h-760v-506h822v-164h-1016zM342 1575v213h184v-213h-184zM727 1575v213h184v-213h-184z" />
<glyph unicode="&#xcc;" horiz-adv-x="530" d="M-8 1860h223l176 -293h-131zM168 0v1462h194v-1462h-194z" />
<glyph unicode="&#xcd;" horiz-adv-x="530" d="M141 1567l176 293h224l-269 -293h-131zM168 0v1462h194v-1462h-194z" />
<glyph unicode="&#xce;" horiz-adv-x="530" d="M-41 1567l211 293h190l213 -293h-172l-141 196l-143 -196h-158zM168 0v1462h194v-1462h-194z" />
<glyph unicode="&#xcf;" horiz-adv-x="530" d="M-18 1575v213h184v-213h-184zM168 0v1462h194v-1462h-194zM367 1575v213h184v-213h-184z" />
<glyph unicode="&#xd0;" horiz-adv-x="1392" d="M18 694v140h142v628h522q290 0 445 -139t155 -424v-336q0 -285 -155 -424t-445 -139h-522v694h-142zM354 164h328q194 0 299.5 103t105.5 296v336q0 193 -105.5 296t-299.5 103h-328v-464h441v-140h-441v-530z" />
<glyph unicode="&#xd1;" horiz-adv-x="1478" d="M158 0v1462h207l770 -1186h4v1186h184v-1462h-213l-764 1174h-4v-1174h-184zM393 1585q29 105 77.5 165t137.5 60q56 0 152 -41q94 -40 135 -40q36 0 59.5 26.5t34.5 63.5h107q-12 -89 -64 -164q-57 -64 -162 -64q-35 0 -135 41q-106 39 -137 39q-37 0 -69 -25t-29 -61 h-107z" />
<glyph unicode="&#xd2;" horiz-adv-x="1478" d="M152 528v406q0 285 155 424t445 139q276 0 425.5 -144t149.5 -419v-406q0 -275 -149.5 -419t-425.5 -144q-290 0 -445 139t-155 424zM346 528q0 -193 106 -296t300 -103q185 0 283 103t98 296v406q0 193 -98 296t-283 103q-194 0 -300 -103t-106 -296v-406zM469 1860h223 l176 -293h-131z" />
<glyph unicode="&#xd3;" horiz-adv-x="1478" d="M152 528v406q0 285 155 424t445 139q276 0 425.5 -144t149.5 -419v-406q0 -275 -149.5 -419t-425.5 -144q-290 0 -445 139t-155 424zM346 528q0 -193 106 -296t300 -103q185 0 283 103t98 296v406q0 193 -98 296t-283 103q-194 0 -300 -103t-106 -296v-406zM612 1567 l176 293h224l-269 -293h-131z" />
<glyph unicode="&#xd4;" horiz-adv-x="1478" d="M152 528v406q0 285 155 424t445 139q276 0 425.5 -144t149.5 -419v-406q0 -275 -149.5 -419t-425.5 -144q-290 0 -445 139t-155 424zM346 528q0 -193 106 -296t300 -103q185 0 283 103t98 296v406q0 193 -98 296t-283 103q-194 0 -300 -103t-106 -296v-406zM434 1567 l211 293h191l213 -293h-172l-142 196l-143 -196h-158z" />
<glyph unicode="&#xd5;" horiz-adv-x="1478" d="M152 528v406q0 285 155 424t445 139q276 0 425.5 -144t149.5 -419v-406q0 -275 -149.5 -419t-425.5 -144q-290 0 -445 139t-155 424zM346 528q0 -193 106 -296t300 -103q185 0 283 103t98 296v406q0 193 -98 296t-283 103q-194 0 -300 -103t-106 -296v-406zM401 1585 q29 105 77.5 165t137.5 60q56 0 152 -41q94 -40 135 -40q36 0 59.5 26.5t34.5 63.5h107q-12 -89 -64 -164q-57 -64 -161 -64q-36 0 -136 41q-106 39 -137 39q-37 0 -69 -25t-29 -61h-107z" />
<glyph unicode="&#xd6;" horiz-adv-x="1478" d="M152 528v406q0 285 155 424t445 139q276 0 425.5 -144t149.5 -419v-406q0 -275 -149.5 -419t-425.5 -144q-290 0 -445 139t-155 424zM346 528q0 -193 106 -296t300 -103q185 0 283 103t98 296v406q0 193 -98 296t-283 103q-194 0 -300 -103t-106 -296v-406zM455 1575v213 h184v-213h-184zM840 1575v213h184v-213h-184z" />
<glyph unicode="&#xd7;" horiz-adv-x="1228" d="M145 147l373 373l-371 369l99 98l370 -369l369 369l98 -98l-368 -369l370 -373l-98 -98l-371 373l-372 -373z" />
<glyph unicode="&#xd8;" horiz-adv-x="1556" d="M76 20l172 189q-83 103 -126.5 238t-43.5 284q0 151 45 287.5t130 244t220.5 171t304.5 63.5q289 0 475 -180l162 178l66 -61l-168 -185q166 -211 166 -518q0 -120 -28 -232t-85.5 -209t-139.5 -169.5t-197 -114t-251 -41.5q-287 0 -469 176l-166 -182zM272 731 q0 -223 103 -383l755 834q-131 151 -352 151q-128 0 -228 -52t-159 -139t-89 -191.5t-30 -219.5zM430 274q129 -145 348 -145q128 0 228 52t159 139t89 191.5t30 219.5q0 224 -98 377z" />
<glyph unicode="&#xd9;" horiz-adv-x="1478" d="M152 528v934h194v-934q0 -193 106 -296t300 -103q185 0 283 103t98 296v934h194v-934q0 -275 -149.5 -419t-425.5 -144q-290 0 -445 139t-155 424zM465 1860h223l176 -293h-131z" />
<glyph unicode="&#xda;" horiz-adv-x="1478" d="M152 528v934h194v-934q0 -193 106 -296t300 -103q185 0 283 103t98 296v934h194v-934q0 -275 -149.5 -419t-425.5 -144q-290 0 -445 139t-155 424zM614 1567l177 293h223l-269 -293h-131z" />
<glyph unicode="&#xdb;" horiz-adv-x="1478" d="M152 528v934h194v-934q0 -193 106 -296t300 -103q185 0 283 103t98 296v934h194v-934q0 -275 -149.5 -419t-425.5 -144q-290 0 -445 139t-155 424zM432 1567l211 293h191l213 -293h-173l-141 196l-143 -196h-158z" />
<glyph unicode="&#xdc;" horiz-adv-x="1478" d="M152 528v934h194v-934q0 -193 106 -296t300 -103q185 0 283 103t98 296v934h194v-934q0 -275 -149.5 -419t-425.5 -144q-290 0 -445 139t-155 424zM455 1575v213h184v-213h-184zM840 1575v213h184v-213h-184z" />
<glyph unicode="&#xdd;" horiz-adv-x="1327" d="M4 1462h232l438 -696l428 696h221l-559 -864v-598h-195v598zM539 1567l176 293h223l-268 -293h-131z" />
<glyph unicode="&#xde;" horiz-adv-x="1327" d="M160 0v1462h194v-233h447q216 0 332 -114t116 -320q0 -204 -116 -317t-332 -113h-447v-365h-194zM354 528h381q320 0 320 267q0 270 -320 270h-381v-537z" />
<glyph unicode="&#xdf;" d="M131 0v1087q0 183 111.5 296.5t294.5 113.5q61 0 121 -14t115 -43.5t96.5 -71t66.5 -101t25 -128.5q0 -249 -213 -318v-4q132 -17 205 -121t73 -245q0 -211 -131.5 -343.5t-341.5 -132.5q-23 0 -88 9v151q23 -6 70 -6q139 0 223 83t84 216q0 78 -18 134t-48 89t-80 52 t-103 25.5t-128 6.5v139q137 -8 224 48.5t87 189.5q0 97 -65.5 164t-161.5 67q-118 0 -181 -63t-63 -223v-1057h-174z" />
<glyph unicode="&#xe0;" horiz-adv-x="1099" d="M76 289q0 86 40.5 153t102 105.5t145 63.5t159 33.5t155.5 8.5h110v101q0 44 -14 76.5t-36 51t-54.5 30t-63 15t-67.5 3.5q-264 0 -264 -201v-10h-174v10q0 76 24 137t65.5 101t99 66.5t122 38t137.5 11.5q63 0 115 -6t106.5 -25t91.5 -49.5t61 -84t24 -125.5v-791h-164 v137q-139 -164 -373 -164q-157 0 -252.5 75.5t-95.5 238.5zM258 285q0 -80 58.5 -118t146.5 -38q81 0 146 23.5t101.5 61t55.5 77.5t20 78l2 131h-143q-178 0 -282.5 -57t-104.5 -158zM276 1497h224l176 -293h-131z" />
<glyph unicode="&#xe1;" horiz-adv-x="1099" d="M76 289q0 86 40.5 153t102 105.5t145 63.5t159 33.5t155.5 8.5h110v101q0 44 -14 76.5t-36 51t-54.5 30t-63 15t-67.5 3.5q-264 0 -264 -201v-10h-174v10q0 76 24 137t65.5 101t99 66.5t122 38t137.5 11.5q63 0 115 -6t106.5 -25t91.5 -49.5t61 -84t24 -125.5v-791h-164 v137q-139 -164 -373 -164q-157 0 -252.5 75.5t-95.5 238.5zM258 285q0 -80 58.5 -118t146.5 -38q81 0 146 23.5t101.5 61t55.5 77.5t20 78l2 131h-143q-178 0 -282.5 -57t-104.5 -158zM426 1204l176 293h223l-268 -293h-131z" />
<glyph unicode="&#xe2;" horiz-adv-x="1099" d="M76 289q0 86 40.5 153t102 105.5t145 63.5t159 33.5t155.5 8.5h110v101q0 44 -14 76.5t-36 51t-54.5 30t-63 15t-67.5 3.5q-264 0 -264 -201v-10h-174v10q0 76 24 137t65.5 101t99 66.5t122 38t137.5 11.5q63 0 115 -6t106.5 -25t91.5 -49.5t61 -84t24 -125.5v-791h-164 v137q-139 -164 -373 -164q-157 0 -252.5 75.5t-95.5 238.5zM244 1204l211 293h190l213 -293h-172l-141 197l-144 -197h-157zM258 285q0 -80 58.5 -118t146.5 -38q81 0 146 23.5t101.5 61t55.5 77.5t20 78l2 131h-143q-178 0 -282.5 -57t-104.5 -158z" />
<glyph unicode="&#xe3;" horiz-adv-x="1099" d="M76 289q0 86 40.5 153t102 105.5t145 63.5t159 33.5t155.5 8.5h110v101q0 44 -14 76.5t-36 51t-54.5 30t-63 15t-67.5 3.5q-264 0 -264 -201v-10h-174v10q0 76 24 137t65.5 101t99 66.5t122 38t137.5 11.5q63 0 115 -6t106.5 -25t91.5 -49.5t61 -84t24 -125.5v-791h-164 v137q-139 -164 -373 -164q-157 0 -252.5 75.5t-95.5 238.5zM205 1223q29 105 77.5 165t137.5 60q55 0 151 -41t136 -41q36 0 59.5 26.5t34.5 63.5h106q-13 -91 -63 -164q-57 -63 -162 -63q-35 0 -135 41q-106 39 -137 39q-37 0 -69.5 -25t-29.5 -61h-106zM258 285 q0 -80 58.5 -118t146.5 -38q81 0 146 23.5t101.5 61t55.5 77.5t20 78l2 131h-143q-178 0 -282.5 -57t-104.5 -158z" />
<glyph unicode="&#xe4;" horiz-adv-x="1099" d="M76 289q0 86 40.5 153t102 105.5t145 63.5t159 33.5t155.5 8.5h110v101q0 44 -14 76.5t-36 51t-54.5 30t-63 15t-67.5 3.5q-264 0 -264 -201v-10h-174v10q0 76 24 137t65.5 101t99 66.5t122 38t137.5 11.5q63 0 115 -6t106.5 -25t91.5 -49.5t61 -84t24 -125.5v-791h-164 v137q-139 -164 -373 -164q-157 0 -252.5 75.5t-95.5 238.5zM258 285q0 -80 58.5 -118t146.5 -38q81 0 146 23.5t101.5 61t55.5 77.5t20 78l2 131h-143q-178 0 -282.5 -57t-104.5 -158zM266 1212v213h185v-213h-185zM651 1212v213h185v-213h-185z" />
<glyph unicode="&#xe5;" horiz-adv-x="1099" d="M76 289q0 86 40.5 153t102 105.5t145 63.5t159 33.5t155.5 8.5h110v101q0 44 -14 76.5t-36 51t-54.5 30t-63 15t-67.5 3.5q-264 0 -264 -201v-10h-174v10q0 76 24 137t65.5 101t99 66.5t122 38t137.5 11.5q63 0 115 -6t106.5 -25t91.5 -49.5t61 -84t24 -125.5v-791h-164 v137q-139 -164 -373 -164q-157 0 -252.5 75.5t-95.5 238.5zM258 285q0 -80 58.5 -118t146.5 -38q81 0 146 23.5t101.5 61t55.5 77.5t20 78l2 131h-143q-178 0 -282.5 -57t-104.5 -158zM319 1356q0 95 68.5 163t163.5 68t163 -68t68 -163t-68 -163.5t-163 -68.5t-163.5 68.5 t-68.5 163.5zM412 1356q0 -58 40 -98.5t99 -40.5t99 40.5t40 98.5t-40 98.5t-99 40.5t-99 -40.5t-40 -98.5z" />
<glyph unicode="&#xe6;" horiz-adv-x="1769" d="M74 289q0 72 27.5 131t76.5 97.5t107.5 66t129.5 42t134.5 21t128.5 6.5h110v103q0 44 -14 76.5t-36 51t-54.5 30t-63 15t-67.5 3.5q-264 0 -264 -201v-10h-174v10q0 76 24 137t65.5 101t99 66.5t122 38t137.5 11.5q56 0 104.5 -8.5t82.5 -22t61.5 -30t44.5 -32.5 t28.5 -29.5t15.5 -22.5l5 -8q3 6 10.5 16.5t36 37.5t64 47t98 37t135.5 17q85 0 154 -18.5t113.5 -47.5t78 -70.5t50.5 -79.5t27.5 -83t13 -73.5t2.5 -57.5v-157h-719v-92q0 -134 72 -205.5t208 -71.5q223 0 258 207h176q-5 -47 -17.5 -90.5t-43.5 -95t-76 -88.5t-122 -62 t-175 -25q-84 0 -153 19.5t-108 46.5t-65.5 54.5t-36.5 46.5l-9 20q-2 -8 -8 -20.5t-36.5 -44.5t-75 -57t-133 -45t-200.5 -20q-71 0 -131.5 17t-110.5 52t-79 97.5t-29 145.5zM258 287q0 -80 58.5 -118t146.5 -38q116 0 193 44.5t108 109.5q16 36 20 123l4 92h-143 q-178 0 -282.5 -57t-104.5 -156zM969 653h542v4q0 135 -66.5 206t-195.5 71q-136 0 -208 -71.5t-72 -205.5v-4z" />
<glyph unicode="&#xe7;" horiz-adv-x="1058" d="M74 403v250q0 36 3.5 69.5t15 78t31 82t54.5 76t81.5 65t116 43t154.5 16.5q99 0 177 -26t123.5 -63.5t76.5 -90t43 -96t17 -90.5h-176q-31 213 -261 213q-135 0 -207.5 -71.5t-72.5 -205.5v-250q0 -133 72.5 -204.5t207.5 -71.5q125 0 193 65.5t72 192.5h176 q-1 -30 -5 -59.5t-15 -71t-28.5 -77t-49 -73t-72.5 -64t-102.5 -45.5t-135.5 -22l-63 -82l4 -4q22 15 67 15q70 0 121 -39.5t51 -110.5q0 -49 -23.5 -86t-62 -57t-81 -29.5t-87.5 -9.5q-85 0 -188 39l37 90q74 -27 125 -27q49 0 88 16t39 48q0 27 -28 45t-68 18 q-34 0 -84 -16l-35 57l104 135q-75 5 -137 24t-103 46.5t-72.5 65t-48.5 73.5t-27.5 78.5t-13.5 74.5t-3 66z" />
<glyph unicode="&#xe8;" horiz-adv-x="1042" d="M74 408v249q0 36 3.5 69.5t15 78t31 82t54.5 76t81.5 65t116 43t154.5 16.5t154.5 -18.5t114.5 -47.5t78.5 -70.5t50.5 -79.5t27.5 -83t13 -73.5t2.5 -57.5v-180h-721v-69q0 -135 72.5 -207t207.5 -72q227 0 258 207h179q-6 -47 -18.5 -90t-43.5 -94.5t-76.5 -89 t-123 -62.5t-175.5 -25q-85 0 -154.5 16.5t-116 43.5t-81.5 65.5t-54.5 76t-31 82.5t-15 79t-3.5 70zM250 631h545v26q0 135 -68 206t-197 71q-135 0 -207.5 -71.5t-72.5 -205.5v-26zM256 1497h223l176 -293h-131z" />
<glyph unicode="&#xe9;" horiz-adv-x="1050" d="M74 408v249q0 36 3.5 69.5t15 78t31 82t54.5 76t81.5 65t116 43t154.5 16.5t154.5 -18.5t114.5 -47.5t78.5 -70.5t50.5 -79.5t27.5 -83t13 -73.5t2.5 -57.5v-180h-721v-69q0 -135 72.5 -207t207.5 -72q227 0 258 207h179q-6 -47 -18.5 -90t-43.5 -94.5t-76.5 -89 t-123 -62.5t-175.5 -25q-85 0 -154.5 16.5t-116 43.5t-81.5 65.5t-54.5 76t-31 82.5t-15 79t-3.5 70zM250 631h545v26q0 135 -68 206t-197 71q-135 0 -207.5 -71.5t-72.5 -205.5v-26zM403 1204l177 293h223l-268 -293h-132z" />
<glyph unicode="&#xea;" horiz-adv-x="1050" d="M74 408v249q0 36 3.5 69.5t15 78t31 82t54.5 76t81.5 65t116 43t154.5 16.5t154.5 -18.5t114.5 -47.5t78.5 -70.5t50.5 -79.5t27.5 -83t13 -73.5t2.5 -57.5v-180h-721v-69q0 -135 72.5 -207t207.5 -72q227 0 258 207h179q-6 -47 -18.5 -90t-43.5 -94.5t-76.5 -89 t-123 -62.5t-175.5 -25q-85 0 -154.5 16.5t-116 43.5t-81.5 65.5t-54.5 76t-31 82.5t-15 79t-3.5 70zM223 1204l211 293h191l213 -293h-172l-142 197l-143 -197h-158zM250 631h545v26q0 135 -68 206t-197 71q-135 0 -207.5 -71.5t-72.5 -205.5v-26z" />
<glyph unicode="&#xeb;" horiz-adv-x="1046" d="M74 408v249q0 36 3.5 69.5t15 78t31 82t54.5 76t81.5 65t116 43t154.5 16.5t154.5 -18.5t114.5 -47.5t78.5 -70.5t50.5 -79.5t27.5 -83t13 -73.5t2.5 -57.5v-180h-721v-69q0 -135 72.5 -207t207.5 -72q227 0 258 207h179q-6 -47 -18.5 -90t-43.5 -94.5t-76.5 -89 t-123 -62.5t-175.5 -25q-85 0 -154.5 16.5t-116 43.5t-81.5 65.5t-54.5 76t-31 82.5t-15 79t-3.5 70zM246 1212v213h184v-213h-184zM250 631h545v26q0 135 -68 206t-197 71q-135 0 -207.5 -71.5t-72.5 -205.5v-26zM631 1212v213h184v-213h-184z" />
<glyph unicode="&#xec;" horiz-adv-x="454" d="M-47 1497h223l176 -293h-131zM141 0v1059h174v-1059h-174z" />
<glyph unicode="&#xed;" horiz-adv-x="454" d="M102 1204l177 293h223l-269 -293h-131zM141 0v1059h174v-1059h-174z" />
<glyph unicode="&#xee;" horiz-adv-x="454" d="M-80 1204l211 293h191l213 -293h-173l-141 197l-143 -197h-158zM141 0v1059h174v-1059h-174z" />
<glyph unicode="&#xef;" horiz-adv-x="454" d="M-57 1212v213h184v-213h-184zM141 0v1059h174v-1059h-174zM328 1212v213h184v-213h-184z" />
<glyph unicode="&#xf0;" horiz-adv-x="1175" d="M74 528q0 101 32.5 192t92 161.5t152.5 112.5t206 42q185 0 285 -114h4q-43 95 -117 181t-133 128l-236 -111l-77 82l223 105q-48 42 -144 98l144 92q11 -8 43 -30t61.5 -44t53.5 -41l245 115l72 -76l-236 -108q357 -294 357 -785q0 -157 -57.5 -280.5t-175.5 -198 t-281 -74.5t-281 74.5t-175.5 198t-57.5 280.5zM258 528q0 -186 94 -292.5t236 -106.5t236 106.5t94 292.5q0 72 -20 134.5t-59.5 112.5t-106.5 79t-154 29q-153 0 -236.5 -97t-83.5 -258z" />
<glyph unicode="&#xf1;" d="M131 0v1059h164v-168h4q108 192 344 192q102 0 174.5 -28t113.5 -81t59 -121t18 -157v-696h-174v717q0 97 -58.5 155t-157.5 58q-153 0 -233 -91.5t-80 -240.5v-598h-174zM223 1223q29 105 77.5 165t137.5 60q56 0 152 -41t135 -41q36 0 59.5 26.5t34.5 63.5h107 q-12 -89 -64 -164q-57 -63 -162 -63q-35 0 -135 41q-106 39 -137 39q-37 0 -69 -25t-29 -61h-107z" />
<glyph unicode="&#xf2;" horiz-adv-x="1050" d="M74 408v249q0 36 3.5 69.5t15 78t31 82t54.5 76t82 65t116.5 43t155.5 16.5q85 0 154 -18.5t113.5 -47.5t78 -70.5t50.5 -79.5t27.5 -83t13 -73.5t2.5 -57.5v-249q0 -29 -2.5 -58t-13 -74t-27.5 -83.5t-50.5 -80t-78 -70.5t-113.5 -48t-154 -19q-86 0 -155.5 16.5 t-116.5 43.5t-82 65.5t-54.5 76t-31 82.5t-15 79t-3.5 70zM250 408q0 -135 73 -207t209 -72q129 0 196 71t67 208v249q0 135 -67 206t-196 71q-136 0 -209 -71.5t-73 -205.5v-249zM252 1497h223l176 -293h-131z" />
<glyph unicode="&#xf3;" horiz-adv-x="1050" d="M74 408v249q0 36 3.5 69.5t15 78t31 82t54.5 76t82 65t116.5 43t155.5 16.5q85 0 154 -18.5t113.5 -47.5t78 -70.5t50.5 -79.5t27.5 -83t13 -73.5t2.5 -57.5v-249q0 -29 -2.5 -58t-13 -74t-27.5 -83.5t-50.5 -80t-78 -70.5t-113.5 -48t-154 -19q-86 0 -155.5 16.5 t-116.5 43.5t-82 65.5t-54.5 76t-31 82.5t-15 79t-3.5 70zM250 408q0 -135 73 -207t209 -72q129 0 196 71t67 208v249q0 135 -67 206t-196 71q-136 0 -209 -71.5t-73 -205.5v-249zM401 1204l177 293h223l-269 -293h-131z" />
<glyph unicode="&#xf4;" horiz-adv-x="1050" d="M74 408v249q0 36 3.5 69.5t15 78t31 82t54.5 76t82 65t116.5 43t155.5 16.5q85 0 154 -18.5t113.5 -47.5t78 -70.5t50.5 -79.5t27.5 -83t13 -73.5t2.5 -57.5v-249q0 -29 -2.5 -58t-13 -74t-27.5 -83.5t-50.5 -80t-78 -70.5t-113.5 -48t-154 -19q-86 0 -155.5 16.5 t-116.5 43.5t-82 65.5t-54.5 76t-31 82.5t-15 79t-3.5 70zM240 1204l211 293h190l213 -293h-172l-141 197l-144 -197h-157zM250 408q0 -135 73 -207t209 -72q129 0 196 71t67 208v249q0 135 -67 206t-196 71q-136 0 -209 -71.5t-73 -205.5v-249z" />
<glyph unicode="&#xf5;" horiz-adv-x="1050" d="M74 408v249q0 36 3.5 69.5t15 78t31 82t54.5 76t82 65t116.5 43t155.5 16.5q85 0 154 -18.5t113.5 -47.5t78 -70.5t50.5 -79.5t27.5 -83t13 -73.5t2.5 -57.5v-249q0 -29 -2.5 -58t-13 -74t-27.5 -83.5t-50.5 -80t-78 -70.5t-113.5 -48t-154 -19q-86 0 -155.5 16.5 t-116.5 43.5t-82 65.5t-54.5 76t-31 82.5t-15 79t-3.5 70zM197 1223q29 105 77.5 165t137.5 60q55 0 151 -41t135 -41q36 0 60 26.5t35 63.5h106q-13 -91 -63 -164q-57 -63 -162 -63q-35 0 -135 41q-106 39 -138 39q-37 0 -69 -25t-29 -61h-106zM250 408q0 -135 73 -207 t209 -72q129 0 196 71t67 208v249q0 135 -67 206t-196 71q-136 0 -209 -71.5t-73 -205.5v-249z" />
<glyph unicode="&#xf6;" horiz-adv-x="1050" d="M74 408v249q0 36 3.5 69.5t15 78t31 82t54.5 76t82 65t116.5 43t155.5 16.5q85 0 154 -18.5t113.5 -47.5t78 -70.5t50.5 -79.5t27.5 -83t13 -73.5t2.5 -57.5v-249q0 -29 -2.5 -58t-13 -74t-27.5 -83.5t-50.5 -80t-78 -70.5t-113.5 -48t-154 -19q-86 0 -155.5 16.5 t-116.5 43.5t-82 65.5t-54.5 76t-31 82.5t-15 79t-3.5 70zM242 1212v213h184v-213h-184zM250 408q0 -135 73 -207t209 -72q129 0 196 71t67 208v249q0 135 -67 206t-196 71q-136 0 -209 -71.5t-73 -205.5v-249zM627 1212v213h184v-213h-184z" />
<glyph unicode="&#xf7;" horiz-adv-x="1228" d="M98 449v139h1032v-139h-1032zM483 96q0 54 39 92.5t92 38.5q52 0 91.5 -39.5t39.5 -91.5q0 -50 -39.5 -90.5t-89.5 -40.5q-54 0 -93.5 39t-39.5 92zM483 940q0 54 39 92.5t92 38.5q52 0 91.5 -39.5t39.5 -91.5q0 -50 -39.5 -90.5t-89.5 -40.5q-54 0 -93.5 39t-39.5 92z " />
<glyph unicode="&#xf8;" horiz-adv-x="1175" d="M70 4l133 146q-64 104 -64 251v250q0 52 7.5 100.5t35.5 111.5t75 108.5t135 77.5t206 32q224 0 332 -120l121 135l55 -54l-129 -143q59 -102 59 -248v-250q0 -29 -2.5 -57.5t-12.5 -74t-27.5 -83.5t-50.5 -79.5t-77.5 -70.5t-113.5 -48t-154 -19q-229 0 -350 121 l-121 -135zM315 401q0 -52 17 -108l483 538q-66 97 -217 97q-136 0 -209.5 -71.5t-73.5 -205.5v-250zM367 221q70 -98 231 -98q129 0 195.5 70.5t66.5 207.5v250q0 59 -12 105z" />
<glyph unicode="&#xf9;" d="M131 362v697h174v-717q0 -97 58 -155t157 -58q153 0 233.5 91.5t80.5 240.5v598h174v-1059h-164v168h-4q-109 -193 -344 -193q-102 0 -174.5 28t-113.5 81t-59 121t-18 157zM295 1497h223l176 -293h-131z" />
<glyph unicode="&#xfa;" d="M131 362v697h174v-717q0 -97 58 -155t157 -58q153 0 233.5 91.5t80.5 240.5v598h174v-1059h-164v168h-4q-109 -193 -344 -193q-102 0 -174.5 28t-113.5 81t-59 121t-18 157zM444 1204l177 293h223l-269 -293h-131z" />
<glyph unicode="&#xfb;" d="M131 362v697h174v-717q0 -97 58 -155t157 -58q153 0 233.5 91.5t80.5 240.5v598h174v-1059h-164v168h-4q-109 -193 -344 -193q-102 0 -174.5 28t-113.5 81t-59 121t-18 157zM262 1204l211 293h191l213 -293h-172l-142 197l-143 -197h-158z" />
<glyph unicode="&#xfc;" d="M131 362v697h174v-717q0 -97 58 -155t157 -58q153 0 233.5 91.5t80.5 240.5v598h174v-1059h-164v168h-4q-109 -193 -344 -193q-102 0 -174.5 28t-113.5 81t-59 121t-18 157zM285 1212v213h184v-213h-184zM670 1212v213h184v-213h-184z" />
<glyph unicode="&#xfd;" horiz-adv-x="1024" d="M16 1059h197l309 -866h4l297 866h185l-562 -1465h-174l164 412zM387 1204l176 293h223l-268 -293h-131z" />
<glyph unicode="&#xfe;" horiz-adv-x="1114" d="M137 -406v1868h174v-508q98 127 295 127q105 0 185.5 -31.5t125 -77.5t72.5 -108t36.5 -112t8.5 -101v-250q0 -52 -7 -100.5t-34 -111.5t-70.5 -108.5t-125.5 -77.5t-191 -32q-200 0 -295 135v-512h-174zM305 401q0 -135 68 -205.5t200 -70.5q137 0 211 71.5t74 204.5 v250q0 134 -74 205.5t-211 71.5q-132 0 -200 -70.5t-68 -206.5v-250z" />
<glyph unicode="&#xff;" horiz-adv-x="1024" d="M16 1059h197l309 -866h4l297 866h185l-562 -1465h-174l164 412zM227 1212v213h185v-213h-185zM612 1212v213h185v-213h-185z" />
<glyph unicode="&#x152;" horiz-adv-x="2134" d="M78 530v406q0 285 155 424t445 139q253 0 379 -151v116h977v-164h-783v-464h717v-164h-717v-506h795v-164h-989v115q-128 -150 -379 -150q-290 0 -445 139t-155 424zM272 530q0 -193 106 -296t300 -103q185 0 283 103t98 296v406q0 193 -98 296t-283 103 q-194 0 -300 -103t-106 -296v-406z" />
<glyph unicode="&#x153;" horiz-adv-x="1781" d="M74 408v249q0 36 3.5 70t15 78.5t31 82t54.5 75.5t82 64.5t116.5 43t155.5 16.5q74 0 137.5 -18.5t101 -45.5t64.5 -54t37 -45l11 -19q3 7 9.5 19.5t35 44t66 55.5t106 43.5t151.5 19.5q85 0 154 -18.5t113.5 -47.5t78 -70.5t50.5 -79.5t27.5 -83t13 -73.5t2.5 -57.5 v-178h-719v-96q6 -122 78.5 -187t201.5 -65q110 0 175.5 52.5t82.5 154.5h177q-6 -47 -18.5 -90t-43.5 -94.5t-76.5 -89t-122 -62.5t-174.5 -25q-88 0 -158 19t-107.5 45.5t-62.5 53.5t-33 46l-7 19q-3 -7 -8.5 -19.5t-32 -44t-62 -55.5t-101.5 -44t-147 -20 q-86 0 -155.5 16.5t-116.5 43.5t-82 65t-54.5 76t-31 82.5t-15 78t-3.5 69.5zM250 408q0 -134 73 -205.5t209 -71.5q122 0 189 63.5t74 186.5v305q-8 122 -75 185t-188 63q-136 0 -209 -71.5t-73 -205.5v-249zM971 633h542v24q0 136 -66.5 206.5t-195.5 70.5t-201.5 -64.5 t-78.5 -185.5v-27v-24z" />
<glyph unicode="&#x178;" horiz-adv-x="1327" d="M4 1462h232l438 -696l428 696h221l-559 -864v-598h-195v598zM379 1575v213h184v-213h-184zM764 1575v213h184v-213h-184z" />
<glyph unicode="&#x2c6;" horiz-adv-x="454" d="M-80 1204l211 293h191l213 -293h-173l-141 197l-143 -197h-158z" />
<glyph unicode="&#x2dc;" horiz-adv-x="454" d="M-119 1223q29 105 77.5 165t137.5 60q56 0 152 -41t135 -41q36 0 59.5 26.5t34.5 63.5h107q-12 -89 -64 -164q-57 -63 -162 -63q-35 0 -135 41q-106 39 -137 39q-37 0 -69 -25t-29 -61h-107z" />
<glyph unicode="&#x2000;" horiz-adv-x="975" />
<glyph unicode="&#x2001;" horiz-adv-x="1950" />
<glyph unicode="&#x2002;" horiz-adv-x="975" />
<glyph unicode="&#x2003;" horiz-adv-x="1950" />
<glyph unicode="&#x2004;" horiz-adv-x="650" />
<glyph unicode="&#x2005;" horiz-adv-x="487" />
<glyph unicode="&#x2006;" horiz-adv-x="325" />
<glyph unicode="&#x2007;" horiz-adv-x="325" />
<glyph unicode="&#x2008;" horiz-adv-x="243" />
<glyph unicode="&#x2009;" horiz-adv-x="390" />
<glyph unicode="&#x200a;" horiz-adv-x="108" />
<glyph unicode="&#x2010;" horiz-adv-x="796" d="M102 487v164h592v-164h-592z" />
<glyph unicode="&#x2011;" horiz-adv-x="796" d="M102 487v164h592v-164h-592z" />
<glyph unicode="&#x2012;" horiz-adv-x="796" d="M102 487v164h592v-164h-592z" />
<glyph unicode="&#x2013;" horiz-adv-x="1024" d="M0 487v164h1024v-164h-1024z" />
<glyph unicode="&#x2014;" horiz-adv-x="2048" d="M266 487v164h1516v-164h-1516z" />
<glyph unicode="&#x2018;" horiz-adv-x="569" d="M172 934v227q0 131 56.5 216t168.5 85v-102q-43 0 -71 -31.5t-37.5 -73.5t-9.5 -94h120v-227h-227z" />
<glyph unicode="&#x2019;" horiz-adv-x="569" d="M170 1235v227h227v-227q0 -131 -56.5 -216t-168.5 -85v102q33 0 57 17.5t37 47.5t19 63t6 71h-121z" />
<glyph unicode="&#x201a;" horiz-adv-x="569" d="M170 0v227h227v-227q0 -131 -56.5 -216t-168.5 -85v102q33 0 57 17.5t37 47.5t19 63t6 71h-121z" />
<glyph unicode="&#x201c;" horiz-adv-x="872" d="M135 934v227q0 131 56.5 216t168.5 85v-102q-43 0 -71 -31.5t-37.5 -73.5t-9.5 -94h120v-227h-227zM510 934v227q0 131 56.5 216t168.5 85v-102q-33 0 -57 -17.5t-37 -47.5t-19 -63t-6 -71h121v-227h-227z" />
<glyph unicode="&#x201d;" horiz-adv-x="872" d="M135 1235v227h227v-227q0 -131 -56.5 -216t-168.5 -85v102q33 0 57 17.5t37 47.5t19 63t6 71h-121zM510 1235v227h227v-227q0 -131 -56.5 -216t-168.5 -85v102q33 0 57 17.5t37 47.5t19 63t6 71h-121z" />
<glyph unicode="&#x201e;" horiz-adv-x="872" d="M135 0v227h227v-227q0 -131 -56.5 -216t-168.5 -85v102q33 0 57 17.5t37 47.5t19 63t6 71h-121zM510 0v227h227v-227q0 -131 -56.5 -216t-168.5 -85v102q33 0 57 17.5t37 47.5t19 63t6 71h-121z" />
<glyph unicode="&#x2022;" horiz-adv-x="1024" d="M147 731q0 152 106.5 258.5t258.5 106.5t259.5 -106.5t107.5 -258.5t-107.5 -259t-259.5 -107t-258.5 107t-106.5 259z" />
<glyph unicode="&#x2026;" horiz-adv-x="2048" d="M227 0v227h228v-227h-228zM909 0v227h228v-227h-228zM1591 0v227h228v-227h-228z" />
<glyph unicode="&#x202f;" horiz-adv-x="390" />
<glyph unicode="&#x2039;" horiz-adv-x="530" d="M102 479v180l312 246v-176l-205 -160l205 -159v-177z" />
<glyph unicode="&#x203a;" horiz-adv-x="530" d="M117 233v177l205 159l-205 160v176l311 -246v-180z" />
<glyph unicode="&#x205f;" horiz-adv-x="487" />
<glyph unicode="&#x20ac;" d="M27 565l55 125h94q-2 14 -2 41q0 48 2 66h-149l53 125h110q50 251 187 397q153 166 395 166q187 0 371 -129l-94 -170q-144 141 -293 141q-153 0 -254 -131q-81 -106 -115 -274h580l-56 -125h-538q-2 -23 -2 -64q0 -31 2 -43h510l-54 -125h-446q68 -440 389 -440 q100 0 174 39q55 28 141 108v-215q-140 -90 -315 -90q-503 0 -588 598h-157z" />
<glyph unicode="&#x2122;" horiz-adv-x="1976" d="M131 1348v112h668v-112h-264v-732h-140v732h-264zM969 616v844h190l244 -489l246 489h192v-844h-139v646l-236 -474h-127l-231 465v-637h-139z" />
<glyph unicode="&#x25fc;" horiz-adv-x="1054" d="M0 0v1055h1055v-1055h-1055z" />
<glyph unicode="&#xfb01;" horiz-adv-x="1060" d="M25 905v154h178v117q0 303 354 303q70 0 147 -18.5t118 -36.5l42 -19v-152q-15 8 -41.5 20t-103.5 32t-148 20q-97 0 -145.5 -33t-48.5 -127v-106h545v-154v-905h-174v905h-371v-905h-174v905h-178z" />
<glyph unicode="&#xfb02;" horiz-adv-x="1089" d="M25 905v154h178v117q0 155 98.5 229t296.5 74q83 0 164.5 -18.5t121.5 -36.5l40 -19v-1131q0 -82 20.5 -113.5t77.5 -31.5q47 0 72 4v-149q-46 -9 -90 -9q-120 0 -187 67t-67 204v1059q-70 20 -179 20q-97 0 -145.5 -33t-48.5 -127v-106h205v-154h-205v-905h-174v905 h-178z" />
</font>
</defs>
</svg>
